<?xml version="1.0" encoding="UTF-8" standalone="no"?>
<!DOCTYPE svg PUBLIC "-//W3C//DTD SVG 1.1//EN" "http://www.w3.org/Graphics/SVG/1.1/DTD/svg11.dtd">
<!-- Created with Vectornator (http://vectornator.io/) -->
<svg height="100%" stroke-miterlimit="10" style="fill-rule:nonzero;clip-rule:evenodd;stroke-linecap:round;stroke-linejoin:round;" version="1.1" viewBox="0 0 116 116" width="100%" xml:space="preserve" xmlns="http://www.w3.org/2000/svg" xmlns:vectornator="http://vectornator.io" xmlns:xlink="http://www.w3.org/1999/xlink">
<defs>
<clipPath id="TextBounds">
<rect height="48.6556" width="32.2757" x="41.2916" y="17.7738"/>
</clipPath>
</defs>
<g id="Untitled" vectornator:layerName="Untitled">
<g opacity="1">
<g opacity="1">
<path d="M57.9984 115.318C39.451 115.298 24.4192 100.269 24.3944 81.722L24.3944 37.422C24.3944 18.8621 39.4401 3.8164 58 3.8164C76.5599 3.8164 91.6056 18.8621 91.6056 37.422L91.6056 81.722C91.5808 100.271 76.5471 115.299 57.9984 115.318M57.9984 6.15997C40.742 6.17943 26.7587 20.1656 26.7428 37.422L26.7428 81.722C26.7614 98.9757 40.7431 112.958 57.9968 112.978L57.9968 112.978C75.2511 112.959 89.2338 98.9763 89.2524 81.722L89.2524 37.422C89.2329 20.169 75.2514 6.18745 57.9984 6.168" fill="#000000" fill-rule="nonzero" opacity="1" stroke="#000000" stroke-linecap="butt" stroke-linejoin="round" stroke-width="1"/>
<path d="M37.9746 61.3036C35.0216 61.3036 32.6279 58.9096 32.6282 55.9567C32.6285 53.0037 35.0227 50.6102 37.9757 50.6108C40.9286 50.6114 43.3219 53.0059 43.321 55.9588C43.3175 58.9098 40.9256 61.301 37.9746 61.3036M37.9746 51.3936C35.4544 51.3936 33.4113 53.4365 33.411 55.9567C33.4107 58.4769 35.4533 60.5202 37.9735 60.5208C40.4937 60.5214 42.5373 58.479 42.5382 55.9588C42.5356 53.4392 40.4942 51.3971 37.9746 51.3936" fill="#000000" fill-rule="nonzero" opacity="1" stroke="#000000" stroke-linecap="butt" stroke-linejoin="round" stroke-width="1"/>
<path clip-path="url(#TextBounds)" d="M48.2303 39.7939L57.6822 39.7939L52.7393 52.8406C52.0266 54.731 53.9634 55.7381 55.2185 54.2196L70.4964 35.5638C70.8063 35.192 70.9613 34.8201 70.9613 34.4172C70.9613 33.6735 70.4034 33.1466 69.6442 33.1466L60.1923 33.1466L65.1197 20.0845C65.8325 18.1941 63.8956 17.187 62.656 18.721L47.3626 37.3612C47.0527 37.7486 46.9133 38.105 46.9133 38.5234C46.9133 39.2516 47.4711 39.7939 48.2303 39.7939Z" fill="#000000" opacity="1" stroke="none"/>
</g>
<g opacity="1">
<path d="M56.0014 91.7183C56.0014 89.9169 54.5059 88.4566 52.661 88.4566C50.8161 88.4566 49.3206 89.9169 49.3206 91.7183C49.3206 93.5198 50.8161 94.9801 52.661 94.9801C54.5059 94.9801 56.0014 93.5198 56.0014 91.7183Z" fill="none" opacity="1" stroke="#000000" stroke-linecap="butt" stroke-linejoin="miter" stroke-width="2"/>
<path d="M66.698 91.7183C66.698 89.9169 65.2025 88.4566 63.3576 88.4566C61.5127 88.4566 60.0172 89.9169 60.0172 91.7183C60.0172 93.5198 61.5127 94.9801 63.3576 94.9801C65.2025 94.9801 66.698 93.5198 66.698 91.7183Z" fill="none" opacity="1" stroke="#000000" stroke-linecap="butt" stroke-linejoin="miter" stroke-width="2"/>
<path d="M71.7317 82.9094C71.7317 81.1079 70.2362 79.6476 68.3913 79.6476C66.5464 79.6476 65.0509 81.1079 65.0509 82.9094C65.0509 84.7108 66.5464 86.1711 68.3913 86.1711C70.2362 86.1711 71.7317 84.7108 71.7317 82.9094Z" fill="none" opacity="1" stroke="#000000" stroke-linecap="butt" stroke-linejoin="miter" stroke-width="2"/>
<path d="M61.3497 82.9094C61.3497 81.1079 59.8542 79.6476 58.0093 79.6476C56.1644 79.6476 54.6689 81.1079 54.6689 82.9094C54.6689 84.7108 56.1644 86.1711 58.0093 86.1711C59.8542 86.1711 61.3497 84.7108 61.3497 82.9094Z" fill="none" opacity="1" stroke="#000000" stroke-linecap="butt" stroke-linejoin="miter" stroke-width="2"/>
<path d="M51.125 82.9094C51.125 81.1079 49.6295 79.6476 47.7846 79.6476C45.9397 79.6476 44.4442 81.1079 44.4442 82.9094C44.4442 84.7108 45.9397 86.1711 47.7846 86.1711C49.6295 86.1711 51.125 84.7108 51.125 82.9094Z" fill="none" opacity="1" stroke="#000000" stroke-linecap="butt" stroke-linejoin="miter" stroke-width="2"/>
<path d="M55.3976 75.7521C55.3976 74.3618 54.3058 73.2347 52.9589 73.2347C51.6121 73.2347 50.5203 74.3618 50.5203 75.7521C50.5203 77.1424 51.6121 78.2694 52.9589 78.2694C54.3058 78.2694 55.3976 77.1424 55.3976 75.7521Z" fill="none" opacity="1" stroke="#000000" stroke-linecap="butt" stroke-linejoin="miter" stroke-width="1"/>
<path d="M65.403 75.7521C65.403 74.3618 64.3112 73.2347 62.9643 73.2347C61.6175 73.2347 60.5257 74.3618 60.5257 75.7521C60.5257 77.1424 61.6175 78.2694 62.9643 78.2694C64.3112 78.2694 65.403 77.1424 65.403 75.7521Z" fill="none" opacity="1" stroke="#000000" stroke-linecap="butt" stroke-linejoin="miter" stroke-width="1"/>
<path d="M68.5486 68.3588L47.1554 68.3588C47.1554 68.3588 44.9122 69.8757 43.9671 70.9179C43.022 71.9602 42.1218 73.3615 41.4925 74.4936C40.8632 75.6257 40.3534 76.6398 39.9195 77.9543C39.4855 79.2689 39.0878 80.6385 38.9756 82.3588C38.8635 84.0791 39.0265 86.433 39.4475 88.179C39.8686 89.925 40.6507 91.5139 41.3352 92.7408C42.0197 93.9677 42.5211 94.5894 43.3801 95.5723C44.2391 96.5551 45.3679 97.6636 46.5262 98.561C47.6844 99.4584 48.9032 100.28 50.3015 100.921C51.6997 101.561 54.8632 102.336 54.8632 102.336C54.8632 102.336 59.147 102.911 62.5711 101.707C63.9321 101.229 64.8239 101.065 66.3464 100.291C68.2535 99.3216 70.0904 98.0921 71.5374 96.5161C73.5261 94.35 75.1199 91.7382 76.0991 88.9655C76.8746 86.77 77.1285 84.3711 77.043 82.0442C76.978 80.2766 76.5646 78.5088 75.9418 76.8532C75.4129 75.447 74.5154 74.0943 73.7396 72.9206C72.9807 71.7724 71.6443 70.5137 70.7508 69.7746C69.8574 69.0354 68.5486 68.3588 68.5486 68.3588Z" fill="none" opacity="1" stroke="#000000" stroke-linecap="butt" stroke-linejoin="round" stroke-width="2"/>
</g>
</g>
</g>
</svg>
