<?xml version="1.0" encoding="UTF-8" standalone="no"?>
<!DOCTYPE svg PUBLIC "-//W3C//DTD SVG 1.1//EN" "http://www.w3.org/Graphics/SVG/1.1/DTD/svg11.dtd">
<!-- Created with Vectornator (http://vectornator.io/) -->
<svg height="100%" stroke-miterlimit="10" style="fill-rule:nonzero;clip-rule:evenodd;stroke-linecap:round;stroke-linejoin:round;" version="1.1" viewBox="0 0 700 600" width="100%" xml:space="preserve" xmlns="http://www.w3.org/2000/svg" xmlns:vectornator="http://vectornator.io" xmlns:xlink="http://www.w3.org/1999/xlink">
<defs/>
<g id="Untitled" vectornator:layerName="Untitled">
<path d="M679.903 523.519L385.603 43.7489C366.017 11.7759 333.974 12.2259 314.388 44.1981L20.0884 523.308C0.502364 555.304 15.1314 580.007 52.6004 580.007L647.38 580.007C684.872 580.007 699.497 555.46 679.911 523.511L679.903 523.519ZM349.743 149.949C368.591 149.949 383.173 170.769 382.208 196.215L376.24 349.545C375.275 374.967 363.318 395.787 349.674 395.787C336.033 395.787 324.053 374.967 323.088 349.545L317.189 196.215C316.224 170.77 330.853 149.949 349.744 149.949L349.743 149.949ZM349.743 511.289C325.962 511.289 309.649 493.902 310.141 470.141C310.141 445.864 326.496 428.993 349.743 428.993C373.973 428.993 389.298 445.864 389.813 470.141C389.813 493.903 373.973 511.289 349.743 511.289Z" fill="#000000" fill-rule="nonzero" opacity="1" stroke="none"/>
</g>
</svg>
