<?xml version="1.0" encoding="UTF-8" standalone="no"?>
<!DOCTYPE svg PUBLIC "-//W3C//DTD SVG 1.1//EN" "http://www.w3.org/Graphics/SVG/1.1/DTD/svg11.dtd">
<!-- Created with Vectornator (http://vectornator.io/) -->
<svg height="100%" stroke-miterlimit="10" style="fill-rule:nonzero;clip-rule:evenodd;stroke-linecap:round;stroke-linejoin:round;" version="1.1" viewBox="0 0 375 320" width="100%" xml:space="preserve" xmlns="http://www.w3.org/2000/svg" xmlns:vectornator="http://vectornator.io" xmlns:xlink="http://www.w3.org/1999/xlink">
<defs/>
<g id="Layer-1" vectornator:layerName="Layer 1">
<path d="M39 5C32 7.33333 26 10.6667 21 15C16 19.3333 12.1667 23.8333 9.5 28.5C6.83333 33.1667 4.83333 38.6667 3.5 45C2.16667 51.3333 1.5 89.6667 1.5 160C1.5 230.333 2.16667 268.667 3.5 275C4.83333 281.333 7.83333 287.833 12.5 294.5C17.1667 301.167 22.1667 306.167 27.5 309.5C32.8333 312.833 38.3333 315.167 44 316.5C49.6667 317.833 97.5 318.5 187.5 318.5C277.5 318.5 325.333 317.833 331 316.5C336.667 315.167 342.833 312.167 349.5 307.5C356.167 302.833 361.167 297.833 364.5 292.5C367.833 287.167 370.167 281.333 371.5 275C372.833 268.667 373.5 230.333 373.5 160C373.5 89.6667 372.833 51.3333 371.5 45C370.167 38.6667 368.167 33.1667 365.5 28.5C362.833 23.8333 360.167 20.1667 357.5 17.5C354.833 14.8333 351.333 12.1667 347 9.5C342.667 6.83333 338 4.83333 333 3.5C328 2.16667 279.5 1.5 187.5 1.5C95.5 1.5 46 2.66667 39 5ZM187.5 11.5C277.5 11.5 324.667 12 329 13C333.333 14 337 15.3333 340 17C343 18.6667 346.5 21.6667 350.5 26C354.5 30.3333 357.5 35.1667 359.5 40.5C361.5 45.8333 362.5 85.6667 362.5 160C362.5 234.333 361 274.833 358 281.5C355 288.167 351.667 293.167 348 296.5C344.333 299.833 340 302.5 335 304.5C330 306.5 280.833 307.5 187.5 307.5C94.1667 307.5 44.3333 306 38 303C31.6667 300 26.6667 296.333 23 292C19.3333 287.667 16.6667 283.167 15 278.5C13.3333 273.833 12.5 234.333 12.5 160C12.5 85.6667 13.5 45.8333 15.5 40.5C17.5 35.1667 20.5 30.3333 24.5 26C28.5 21.6667 32 18.6667 35 17C38 15.3333 41.6667 14 46 13C50.3333 12 97.5 11.5 187.5 11.5ZM58 39.5C54.3333 40.8333 50.8333 43 47.5 46C44.1667 49 41.5 53.1667 39.5 58.5C37.5 63.8333 36.5 87.8333 36.5 130.5C36.5 173.167 37.3333 196.833 39 201.5C40.6667 206.167 43.1667 210.167 46.5 213.5C49.8333 216.833 53.6667 219.333 58 221C62.3333 222.667 76.8333 223.5 101.5 223.5C126.167 223.5 140.333 222.167 144 219.5C147.667 216.833 150.333 213.667 152 210C153.667 206.333 155.833 203.167 158.5 200.5C161.167 197.833 165.667 195.167 172 192.5C178.333 189.833 183.667 188.5 188 188.5C192.333 188.5 197 189.333 202 191C207 192.667 211.5 195.167 215.5 198.5C219.5 201.833 222.833 206 225.5 211C228.167 216 231 219.333 234 221C237 222.667 250.833 223.5 275.5 223.5C300.167 223.5 314.667 222.667 319 221C323.333 219.333 327.167 216.833 330.5 213.5C333.833 210.167 336.167 206.833 337.5 203.5C338.833 200.167 339.5 175.833 339.5 130.5C339.5 85.1667 338.5 60.3333 336.5 56C334.5 51.6667 332 48.1667 329 45.5C326 42.8333 322.667 40.8333 319 39.5C315.333 38.1667 271.833 37.5 188.5 37.5C105.167 37.5 61.6667 38.1667 58 39.5ZM188.5 47.5C270.5 47.5 312.833 48 315.5 49C318.167 50 320.667 51.6667 323 54C325.333 56.3333 327 58.6667 328 61C329 63.3333 329.5 86.5 329.5 130.5C329.5 174.5 329.167 197.333 328.5 199C327.833 200.667 326.333 202.833 324 205.5C321.667 208.167 318.667 210.167 315 211.5C311.333 212.833 297.667 213.333 274 213C250.333 212.667 236.333 209.167 232 202.5C227.667 195.833 222.667 190.667 217 187C211.333 183.333 206.667 181 203 180C199.333 179 193.5 178.833 185.5 179.5C177.5 180.167 167.833 170.333 156.5 150C145.167 129.667 138.333 119 136 118C133.667 117 131.833 117.5 130.5 119.5C129.167 121.5 134.333 132.833 146 153.5C157.667 174.167 161 186.333 156 190C151 193.667 147 198.167 144 203.5C141 208.833 138.833 211.833 137.5 212.5C136.167 213.167 124.167 213.5 101.5 213.5C78.8333 213.5 66.1667 213.167 63.5 212.5C60.8333 211.833 58 210.167 55 207.5C52 204.833 50 202.333 49 200C48 197.667 47.5 174.333 47.5 130C47.5 85.6667 48.6667 61.6667 51 58C53.3333 54.3333 56.3333 51.6667 60 50C63.6667 48.3333 106.5 47.5 188.5 47.5ZM183.5 66.5C182.833 67.1667 182.333 71 182 78C181.667 85 181.833 89.1667 182.5 90.5C183.167 91.8333 184.333 92.6667 186 93C187.667 93.3333 189.167 93 190.5 92C191.833 91 192.5 86.8333 192.5 79.5C192.5 72.1667 192 68 191 67C190 66 188.667 65.5 187 65.5C185.333 65.5 184.167 65.8333 183.5 66.5ZM136 75C135 76 134.5 77.5 134.5 79.5C134.5 81.5 135.167 84.3333 136.5 88C137.833 91.6667 139.167 94.6667 140.5 97C141.833 99.3333 143.333 100.5 145 100.5C146.667 100.5 148 100 149 99C150 98 150 95.3333 149 91C148 86.6667 147 83.1667 146 80.5C145 77.8333 143.333 76 141 75C138.667 74 137 74 136 75ZM231.5 75.5C230.167 76.8333 228.5 80.3333 226.5 86C224.5 91.6667 224 95.5 225 97.5C226 99.5 227.333 100.5 229 100.5C230.667 100.5 232 100 233 99C234 98 235.5 94.6667 237.5 89C239.5 83.3333 240.333 79.6667 240 78C239.667 76.3333 238.5 75.1667 236.5 74.5C234.5 73.8333 232.833 74.1667 231.5 75.5ZM93.5 102.5C92.8333 105.167 94.6667 109 99 114C103.333 119 106.5 121.5 108.5 121.5C110.5 121.5 111.833 121.167 112.5 120.5C113.167 119.833 113.333 118.333 113 116C112.667 113.667 110.5 110.167 106.5 105.5C102.5 100.833 99.5 98.5 97.5 98.5C95.5 98.5 94.1667 99.8333 93.5 102.5ZM268 106C263.667 111 261.333 114.333 261 116C260.667 117.667 260.833 119 261.5 120C262.167 121 263.5 121.5 265.5 121.5C267.5 121.5 270.833 118.833 275.5 113.5C280.167 108.167 282.167 104.333 281.5 102C280.833 99.6667 279.5 98.5 277.5 98.5C275.5 98.5 272.333 101 268 106ZM62 137.5C61 138.833 61 140.5 62 142.5C63 144.5 66.1667 147 71.5 150C76.8333 153 80.1667 154.5 81.5 154.5C82.8333 154.5 84 154 85 153C86 152 86.3333 150.5 86 148.5C85.6667 146.5 82.6667 143.833 77 140.5C71.3333 137.167 67.6667 135.5 66 135.5C64.3333 135.5 63 136.167 62 137.5ZM297.5 141C291.5 144.667 288.833 147.833 289.5 150.5C290.167 153.167 291.333 154.5 293 154.5C294.667 154.5 298.5 152.667 304.5 149C310.5 145.333 313.333 142.333 313 140C312.667 137.667 311.5 136.333 309.5 136C307.5 135.667 303.5 137.333 297.5 141ZM167.5 247C158.833 267.333 154.5 278.333 154.5 280C154.5 281.667 155 283 156 284C157 285 158.167 285.5 159.5 285.5C160.833 285.5 162 285 163 284C164 283 165.833 279.167 168.5 272.5C171.167 265.833 177.5 262.5 187.5 262.5C197.5 262.5 203.833 265.833 206.5 272.5C209.167 279.167 211 283 212 284C213 285 214.167 285.5 215.5 285.5C216.833 285.5 218 285 219 284C220 283 220.5 281.667 220.5 280C220.5 278.333 216.5 267.667 208.5 248C200.5 228.333 196.167 218.167 195.5 217.5C194.833 216.833 192.167 216.5 187.5 216.5C182.833 216.5 176.167 226.667 167.5 247ZM186.5 226.5C187.167 227.167 187.833 227.833 188.5 228.5C189.833 229.833 191.833 234.167 194.5 241.5C195.833 245.167 197.167 248.833 198.5 252.5C194.833 252.5 191.167 252.5 187.5 252.5C183.833 252.5 180.167 252.5 176.5 252.5C178.167 248.167 179.833 243.833 181.5 239.5C183.167 235.167 184.833 230.833 186.5 226.5Z" fill="#000000" fill-rule="nonzero" opacity="1" stroke="none"/>
</g>
</svg>
