<?xml version="1.0" encoding="UTF-8" standalone="no"?>
<!DOCTYPE svg PUBLIC "-//W3C//DTD SVG 1.1//EN" "http://www.w3.org/Graphics/SVG/1.1/DTD/svg11.dtd">
<!-- Created with Vectornator (http://vectornator.io/) -->
<svg height="100%" stroke-miterlimit="10" style="fill-rule:nonzero;clip-rule:evenodd;stroke-linecap:round;stroke-linejoin:round;" version="1.1" viewBox="0 0 521 560" width="100%" xml:space="preserve" xmlns="http://www.w3.org/2000/svg" xmlns:vectornator="http://vectornator.io" xmlns:xlink="http://www.w3.org/1999/xlink">
<defs/>
<clipPath id="ArtboardFrame">
<rect height="560" width="521" x="0" y="0"/>
</clipPath>
<g clip-path="url(#ArtboardFrame)" id="Untitled" vectornator:layerName="Untitled">
<g opacity="1">
<path d="M391.576 74.2738C387.388 71.8324 382.013 73.2465 379.567 77.434C377.126 81.6254 378.544 87.0004 382.732 89.442C431.701 117.942 469.193 162.637 488.742 215.822C508.286 269.002 508.665 327.342 489.805 380.772C470.946 434.202 434.032 479.377 385.434 508.502C336.836 537.631 279.593 548.889 223.583 540.334C167.57 531.779 116.302 503.951 78.6114 461.643C40.9231 419.334 19.1769 365.202 17.1269 308.583C15.0761 251.958 32.846 196.393 67.3773 151.473C101.905 106.551 151.03 75.082 206.279 62.5C208.919 73.586 215.212 83.465 224.15 90.539C233.087 97.6132 244.146 101.477 255.545 101.5L297.545 101.5C302.377 101.5 306.295 97.582 306.295 92.75L306.295 78.445L336.898 78.445C341.73 78.445 345.648 74.527 345.648 69.695C345.648 64.863 341.73 60.945 336.898 60.945L306.307 60.945L306.307 40.566L336.91 40.566C341.742 40.566 345.66 36.648 345.66 31.816C345.66 26.984 341.742 23.066 336.91 23.066L306.307 23.066L306.307 8.75C306.307 3.918 302.389 0 297.557 0L255.557 0C243.182 0.03125 231.245 4.5898 222.002 12.82C212.759 21.0505 206.85 32.382 205.393 44.672C146.025 57.496 93.0115 90.668 55.5212 138.453C18.0329 186.234-1.57327 245.623 0.0987457 306.333C1.77066 367.044 24.615 425.263 64.6733 470.903C104.736 516.551 159.494 546.758 219.475 556.298C279.455 565.837 340.886 554.107 393.126 523.138C445.373 492.169 485.147 443.911 505.567 386.708C525.993 329.513 525.774 266.978 504.958 209.918C484.142 152.863 444.035 104.878 391.577 74.278L391.576 74.2738ZM255.534 17.4928L288.797 17.4928L288.797 83.9928L255.534 83.9928C243.866 83.6842 233.214 77.278 227.464 67.1178C221.718 56.9578 221.718 44.5278 227.464 34.3678C233.214 24.2078 243.866 17.8018 255.534 17.4928Z" fill="#000000" fill-rule="nonzero" opacity="1" stroke="none"/>
<path d="M197.395 157.493C186.375 157.473 175.606 160.77 166.485 166.95C157.363 173.133 150.312 181.915 146.246 192.153L119.844 241.899L119.848 241.903C118.379 241.676 116.899 241.563 115.414 241.563C108.555 241.274 101.859 243.711 96.7933 248.34C91.723 252.969 88.6917 259.414 88.3597 266.274C88.4417 273.266 91.598 279.868 96.9925 284.321C92.9105 292.798 90.7894 302.087 90.7855 311.493L90.7855 334.825C90.7855 344.583 93.3949 354.161 98.3441 362.571L98.3441 403.255L98.3441 403.251C98.3441 410.986 101.418 418.407 106.887 423.876C112.356 429.345 119.778 432.419 127.512 432.419L149.681 432.419C157.415 432.419 164.833 429.345 170.302 423.876C175.775 418.407 178.845 410.985 178.845 403.251L178.845 389.72L341.256 389.72L341.256 402.622C341.256 410.357 344.327 417.774 349.799 423.247C355.268 428.716 362.686 431.79 370.421 431.79L392.589 431.79C400.323 431.79 407.741 428.716 413.214 423.247C418.683 417.775 421.757 410.356 421.757 402.622L421.757 364.493C427.472 355.673 430.507 345.384 430.495 334.872L430.495 311.54C430.503 301.978 428.323 292.54 424.124 283.946C429.327 279.493 432.335 272.993 432.37 266.145C431.921 258.762 428.39 251.907 422.644 247.25C416.898 242.59 409.46 240.559 402.143 241.645L377.573 193.168C373.585 182.715 366.526 173.711 357.323 167.344C348.12 160.977 337.21 157.543 326.018 157.492L197.395 157.493ZM361.616 200.204L389.711 255.763C391.785 259.849 396.66 261.646 400.887 259.88C407.477 257.138 414.887 261.142 414.887 266.181C414.586 269.314 412.359 271.923 409.313 272.712C406.785 273.642 404.828 275.677 404 278.235C403.172 280.798 403.562 283.595 405.066 285.825C410.258 293.376 413.039 302.329 413.035 311.493L413.035 334.825C413.039 342.657 410.559 350.286 405.953 356.618C404.875 358.114 404.297 359.911 404.297 361.755L404.297 402.587C404.297 405.681 403.066 408.649 400.879 410.837C398.691 413.024 395.723 414.255 392.629 414.255L370.461 414.255C364.019 414.255 358.797 409.028 358.797 402.587L358.797 380.97C358.797 376.134 354.879 372.22 350.047 372.22L170.145 372.22C165.313 372.22 161.395 376.134 161.395 380.97L161.395 403.298C161.395 406.392 160.164 409.36 157.977 411.548C155.789 413.735 152.825 414.966 149.727 414.966L127.559 414.966L127.563 414.966C121.117 414.966 115.894 409.743 115.894 403.298L115.894 360.13C115.894 358.427 115.394 356.763 114.461 355.337C110.465 349.263 108.336 342.153 108.336 334.884L108.336 311.552C108.332 302.454 111.066 293.568 116.187 286.048C117.727 283.782 118.117 280.927 117.238 278.333C116.359 275.739 114.316 273.704 111.719 272.841C108.574 272.099 106.238 269.462 105.887 266.251C105.887 262.341 110.262 259.04 115.441 259.04C117.168 259.04 118.871 259.443 120.422 260.208C124.66 262.247 129.758 260.571 131.961 256.415L162.188 199.306C164.919 192.173 169.743 186.036 176.028 181.697C182.314 177.358 189.763 175.021 197.4 174.994L326.021 174.994C333.814 175.068 341.396 177.521 347.759 182.017C354.122 186.517 358.958 192.849 361.626 200.169L361.616 200.204Z" fill="#000000" fill-rule="nonzero" opacity="1" stroke="none"/>
</g>
</g>
</svg>
