<?xml version="1.0" encoding="UTF-8" standalone="no"?>
<!DOCTYPE svg PUBLIC "-//W3C//DTD SVG 1.1//EN" "http://www.w3.org/Graphics/SVG/1.1/DTD/svg11.dtd">
<!-- Created with Vectornator (http://vectornator.io/) -->
<svg height="100%" stroke-miterlimit="10" style="fill-rule:nonzero;clip-rule:evenodd;stroke-linecap:round;stroke-linejoin:round;" version="1.1" viewBox="0 0 170 87" width="100%" xml:space="preserve" xmlns="http://www.w3.org/2000/svg" xmlns:vectornator="http://vectornator.io" xmlns:xlink="http://www.w3.org/1999/xlink">
<defs/>
<g id="Untitled" vectornator:layerName="Untitled">
<path d="M21.8053 1.81204C20.7341 1.98343 19.5772 2.26194 18.3346 2.64756C17.092 3.03319 15.978 3.46167 14.9925 3.93299C14.007 4.40431 12.9787 5.00418 11.9075 5.73259C10.8363 6.46099 9.7651 7.33937 8.69391 8.36771C7.62273 9.39605 6.85147 10.2102 6.38015 10.81C5.90883 11.4099 5.41608 12.1169 4.90191 12.931C4.38774 13.7451 3.8093 14.902 3.16658 16.4016C2.52387 17.9013 2.03112 19.5295 1.68834 21.2862C1.34556 23.043 1.17417 24.6283 1.17417 26.0423C1.17417 27.4563 1.30272 28.8917 1.5598 30.3485C1.81689 31.8053 2.18109 33.1764 2.65241 34.4619C3.12374 35.7473 3.61648 36.8613 4.13065 37.804C4.64482 38.7466 5.28754 39.7321 6.05879 40.7604C6.83005 41.7888 7.6013 42.6672 8.37256 43.3956C9.14381 44.124 9.63656 44.6596 9.8508 45.0023C10.065 45.3451 10.2364 45.7307 10.365 46.1592C10.4935 46.5877 10.5578 47.1233 10.5578 47.766C10.5578 48.4087 10.0436 49.8655 9.01527 52.1365C7.98693 54.4074 7.21568 56.3998 6.7015 58.1137C6.18733 59.8276 5.56605 61.113 4.83764 61.97C4.10923 62.8269 3.44509 63.8124 2.84523 64.9264C2.24536 66.0405 1.81689 67.1545 1.5598 68.2685C1.30272 69.3826 1.21702 70.7323 1.30272 72.3176C1.38841 73.903 1.68834 75.3384 2.20251 76.6238C2.71668 77.9092 3.2737 78.959 3.87357 79.7731C4.47343 80.5872 5.26611 81.4013 6.25161 82.2154C7.2371 83.0295 8.37256 83.7151 9.65798 84.2721C10.9434 84.8291 11.9289 85.1719 12.6145 85.3004C13.3 85.429 17.7776 85.4718 26.0472 85.429C34.3167 85.3861 39.0728 85.1719 40.3154 84.7863C41.558 84.4006 42.6506 83.9079 43.5932 83.308C44.5359 82.7082 45.4357 81.9583 46.2926 81.0585C47.1496 80.1587 47.8566 79.1947 48.4136 78.1663C48.9706 77.138 49.3991 75.9811 49.699 74.6957C49.9989 73.4103 50.1275 72.1677 50.0846 70.9679C50.0418 69.7682 49.8275 68.5471 49.4419 67.3045C49.0563 66.0619 48.5635 64.9693 47.9637 64.0266C47.3638 63.084 46.7211 62.2699 46.0355 61.5843C45.35 60.8988 44.7287 60.3632 44.1717 59.9776C43.6146 59.5919 42.7148 59.142 41.4723 58.6279C40.2297 58.1137 39.2228 57.7923 38.4515 57.6638C37.6803 57.5352 33.824 57.471 26.8827 57.471C19.9414 57.471 16.2994 57.3424 15.9566 57.0853C15.6138 56.8283 15.421 56.4426 15.3781 55.9285C15.3353 55.4143 15.5924 54.643 16.1494 53.6147C16.7064 52.5864 17.1135 51.9436 17.3705 51.6866C17.6276 51.4295 18.0347 51.151 18.5917 50.851C19.1487 50.5511 19.6415 50.3583 20.0699 50.2726C20.4984 50.1869 21.2054 50.2083 22.1909 50.3369C23.1764 50.4654 24.676 50.4868 26.6899 50.4011C28.7037 50.3154 30.5033 50.0583 32.0887 49.6299C33.674 49.2014 35.0451 48.7087 36.202 48.1516C37.3589 47.5946 38.6658 46.7805 40.1226 45.7093C41.5794 44.6381 42.6934 43.6955 43.4647 42.8814C44.2359 42.0673 44.9429 41.2103 45.5856 40.3105C46.2283 39.4107 46.8496 38.3824 47.4495 37.2255C48.0494 36.0686 48.5635 34.8046 48.992 33.4335C49.4205 32.0624 49.7204 30.7984 49.8918 29.6415C50.0632 28.4846 50.1489 27.3063 50.1489 26.1066C50.1489 24.9069 50.0632 23.7071 49.8918 22.5074C49.7204 21.3077 49.4633 20.1294 49.1206 18.9725C48.7778 17.8156 48.3065 16.6159 47.7066 15.3733C47.1067 14.1307 46.5283 13.1452 45.9713 12.4168C45.4142 11.6884 45.0929 11.0885 45.0072 10.6172C44.9215 10.1459 45.05 9.69598 45.3928 9.26751C45.7356 8.83903 46.614 8.60337 48.0279 8.56052C49.4419 8.51767 50.1489 7.33937 50.1489 5.0256C50.1489 3.86872 50.1489 2.71183 50.1489 1.55495C45.6928 1.55495 41.2366 1.55495 36.7805 1.55495C27.8682 1.55495 22.8764 1.64065 21.8053 1.81204ZM73.4794 2.06912C71.6369 2.4119 69.923 2.92607 68.3377 3.61163C66.7523 4.29719 65.3169 5.08987 64.0315 5.98967C62.7461 6.88947 61.6535 7.78927 60.7537 8.68906C59.8539 9.58886 58.9755 10.6386 58.1185 11.8384C57.2616 13.0381 56.4903 14.3878 55.8048 15.8874C55.1192 17.3871 54.5836 19.0367 54.198 20.8363C53.8124 22.6359 53.6195 24.3713 53.6195 26.0423C53.6195 27.7134 53.7695 29.2987 54.0694 30.7984C54.3694 32.2981 54.8835 33.9048 55.612 35.6187C56.3404 37.3326 57.0688 38.7252 57.7972 39.7964C58.5256 40.8676 59.3825 41.9173 60.368 42.9457C61.3535 43.974 62.4676 44.9381 63.7101 45.8379C64.9527 46.7377 66.1953 47.4875 67.4379 48.0874C68.6804 48.6872 70.1158 49.2014 71.744 49.6299C73.3723 50.0583 75.0862 50.3154 76.8858 50.4011C78.6853 50.4868 80.3778 50.4011 81.9632 50.144C83.5485 49.887 85.0911 49.4799 86.5907 48.9229C88.0904 48.3659 89.6115 47.5946 91.154 46.6091C92.6965 45.6236 93.9605 44.6596 94.946 43.7169C95.9315 42.7743 96.9384 41.5745 97.9667 40.1177C98.9951 38.6609 99.852 37.1184 100.538 35.4902C101.223 33.862 101.716 32.2552 102.016 30.6698C102.316 29.0845 102.466 27.542 102.466 26.0423C102.466 24.5426 102.316 23.0001 102.016 21.4148C101.716 19.8294 101.202 18.1798 100.473 16.4659C99.7449 14.752 99.0165 13.3594 98.2881 12.2883C97.5597 11.2171 96.6813 10.1459 95.653 9.07469C94.6246 8.0035 93.4035 6.97516 91.9895 5.98967C90.5755 5.00418 89.183 4.2115 87.8119 3.61163C86.4407 3.01177 84.9839 2.54044 83.4414 2.19766C81.8989 1.85488 80.3136 1.66207 78.6853 1.61922C77.0571 1.57638 75.3218 1.72634 73.4794 2.06912ZM140.836 1.81204C139.679 1.98343 138.372 2.30478 136.915 2.77611C135.458 3.24743 134.237 3.74018 133.252 4.25435C132.266 4.76852 131.238 5.41123 130.167 6.18248C129.095 6.95374 128.003 7.91781 126.889 9.07469C125.775 10.2316 124.811 11.4313 123.997 12.6739C123.183 13.9165 122.497 15.2019 121.94 16.5302C121.383 17.8584 120.954 19.1867 120.654 20.515C120.355 21.8433 117.848 22.5074 113.135 22.5074C108.422 22.5074 106.043 23.6643 106.001 25.978C105.979 27.1349 105.958 28.2918 105.936 29.4487C108.314 29.4701 110.692 29.4915 113.07 29.513C117.827 29.5558 120.376 30.3056 120.719 31.7625C121.062 33.2193 121.576 34.6975 122.261 36.1972C122.947 37.6968 123.718 39.0465 124.575 40.2463C125.432 41.446 126.417 42.5815 127.532 43.6526C128.646 44.7238 129.781 45.6451 130.938 46.4163C132.095 47.1876 133.509 47.916 135.18 48.6015C136.851 49.2871 138.329 49.7584 139.615 50.0155C140.9 50.2726 142.292 50.4226 143.792 50.4654C145.292 50.5082 146.663 50.444 147.906 50.2726C149.148 50.1012 150.284 49.8655 151.312 49.5656C152.34 49.2657 153.497 48.8158 154.783 48.2159C156.068 47.616 157.075 47.0804 157.803 46.6091C158.532 46.1378 159.239 45.6236 159.924 45.0666C160.61 44.5096 161.36 43.8026 162.174 42.9457C162.988 42.0887 163.652 41.3175 164.166 40.6319C164.68 39.9463 165.216 39.0894 165.773 38.061C166.051 37.5469 166.33 37.0327 166.608 36.5185C165.473 36.5185 164.338 36.5185 163.202 36.5185C160.931 36.5185 159.646 36.5614 159.346 36.6471C159.046 36.7328 158.703 36.8827 158.317 37.097C157.932 37.3112 157.375 37.7825 156.646 38.5109C155.918 39.2393 155.254 39.8178 154.654 40.2463C154.054 40.6747 153.047 41.2103 151.633 41.853C150.219 42.4958 148.955 42.9242 147.841 43.1385C146.727 43.3527 145.313 43.417 143.599 43.3313C141.885 43.2456 140.471 43.0314 139.357 42.6886C138.243 42.3458 137.344 42.003 136.658 41.6602C135.972 41.3175 135.158 40.8033 134.216 40.1177C133.273 39.4322 132.48 38.7466 131.838 38.061C131.195 37.3755 130.595 36.6257 130.038 35.8115C129.481 34.9974 128.988 34.1191 128.56 33.1764C128.131 32.2338 127.853 31.4197 127.724 30.7341C127.66 30.3913 127.596 30.0486 127.532 29.7058C133.637 29.6844 139.743 29.6629 145.849 29.6415C158.06 29.5987 164.509 29.4701 165.194 29.2559C165.88 29.0416 166.459 28.7417 166.93 28.3561C167.401 27.9705 167.808 27.4777 168.151 26.8778C168.494 26.278 168.708 25.6567 168.794 25.014C168.879 24.3713 168.794 23.3001 168.537 21.8004C168.28 20.3007 167.915 18.9082 167.444 17.6228C166.973 16.3373 166.351 15.0305 165.58 13.7022C164.809 12.374 163.802 11.0243 162.559 9.65313C161.317 8.28201 160.181 7.21082 159.153 6.43957C158.125 5.66831 156.882 4.91848 155.425 4.19007C153.968 3.46167 152.447 2.88322 150.862 2.45475C149.277 2.02627 147.498 1.76919 145.527 1.68349C143.556 1.5978 141.993 1.64065 140.836 1.81204ZM26.8184 8.62479C28.061 8.71049 29.1108 8.86045 29.9677 9.07469C30.8247 9.28893 31.8102 9.65313 32.9242 10.1673C34.0382 10.6815 35.1094 11.3242 36.1378 12.0954C37.1661 12.8667 38.0659 13.7022 38.8371 14.602C39.6084 15.5018 40.294 16.4873 40.8938 17.5585C41.4937 18.6297 41.9222 19.5295 42.1793 20.2579C42.4363 20.9863 42.6506 21.8218 42.822 22.7645C42.9934 23.7071 43.0791 24.8212 43.0791 26.1066C43.0791 27.392 42.9719 28.5489 42.7577 29.5772C42.5435 30.6056 42.1793 31.7196 41.6651 32.9193C41.1509 34.1191 40.5939 35.1474 39.994 36.0044C39.3942 36.8613 38.7086 37.6754 37.9374 38.4467C37.1661 39.2179 36.3734 39.8821 35.5593 40.4391C34.7452 40.9961 33.7383 41.5317 32.5386 42.0459C31.3388 42.56 30.2034 42.9242 29.1322 43.1385C28.061 43.3527 26.8827 43.4598 25.5973 43.4598C24.3118 43.4598 23.155 43.3527 22.1266 43.1385C21.0983 42.9242 19.9842 42.56 18.7845 42.0459C17.5848 41.5317 16.5779 40.9961 15.7638 40.4391C14.9497 39.8821 14.2641 39.3465 13.7071 38.8323C13.1501 38.3181 12.4859 37.5469 11.7147 36.5185C10.9434 35.4902 10.3435 34.5261 9.91507 33.6263C9.48659 32.7265 9.10097 31.5911 8.75819 30.2199C8.41541 28.8488 8.24402 27.4349 8.24402 25.978C8.24402 24.5212 8.32971 23.3858 8.5011 22.5717C8.67249 21.7576 8.92958 20.8792 9.27236 19.9365C9.61514 18.9939 10.1507 17.9441 10.8791 16.7872C11.6075 15.6304 12.4216 14.602 13.3214 13.7022C14.2212 12.8024 15.121 12.0526 16.0208 11.4527C16.9206 10.8529 18.0347 10.2958 19.3629 9.78168C20.6912 9.26751 21.9552 8.92473 23.155 8.75334C24.3547 8.58195 25.5758 8.5391 26.8184 8.62479ZM78.0426 8.62479C79.3281 8.62479 80.4207 8.71049 81.3205 8.88188C82.2203 9.05327 83.1415 9.31035 84.0841 9.65313C85.0268 9.99591 85.9694 10.4458 86.9121 11.0028C87.8547 11.5598 88.7974 12.2668 89.74 13.1238C90.6827 13.9807 91.5182 14.9234 92.2466 15.9517C92.975 16.9801 93.5963 18.1155 94.1105 19.3581C94.6246 20.6007 94.9674 21.6504 95.1388 22.5074C95.3102 23.3643 95.4173 24.307 95.4602 25.3353C95.503 26.3637 95.4387 27.4563 95.2673 28.6132C95.0959 29.77 94.7746 30.9698 94.3033 32.2124C93.8319 33.4549 93.2749 34.569 92.6322 35.5545C91.9895 36.54 91.3896 37.3326 90.8326 37.9325C90.2756 38.5324 89.4829 39.2179 88.4546 39.9892C87.4262 40.7604 86.2694 41.4246 84.9839 41.9816C83.6985 42.5386 82.4988 42.9242 81.3847 43.1385C80.2707 43.3527 79.1567 43.4598 78.0426 43.4598C76.9286 43.4598 75.8146 43.3527 74.7005 43.1385C73.5865 42.9242 72.3868 42.5386 71.1013 41.9816C69.8159 41.4246 68.7019 40.8033 67.7592 40.1177C66.8166 39.4322 65.9382 38.6395 65.1241 37.7397C64.31 36.8399 63.5816 35.833 62.9389 34.7189C62.2962 33.6049 61.8034 32.5123 61.4606 31.4411C61.1179 30.3699 60.8822 29.4058 60.7537 28.5489C60.6251 27.6919 60.6037 26.5136 60.6894 25.014C60.7751 23.5143 60.9679 22.2503 61.2678 21.222C61.5678 20.1936 61.9105 19.2724 62.2962 18.4583C62.6818 17.6442 63.196 16.7872 63.8387 15.8874C64.4814 14.9877 65.2098 14.1521 66.0239 13.3809C66.838 12.6096 67.6735 11.9455 68.5305 11.3885C69.3874 10.8314 70.3301 10.3387 71.3584 9.91022C72.3868 9.48174 73.4365 9.16039 74.5077 8.94615C75.5789 8.73191 76.7572 8.62479 78.0426 8.62479ZM144.499 8.62479C145.785 8.62479 146.877 8.71049 147.777 8.88188C148.677 9.05327 149.491 9.26751 150.219 9.52459C150.948 9.78168 151.826 10.1887 152.854 10.7457C153.883 11.3028 154.89 12.0097 155.875 12.8667C156.861 13.7236 157.653 14.5378 158.253 15.309C158.853 16.0803 159.41 16.9586 159.924 17.9441C160.438 18.9296 160.824 19.9151 161.081 20.9006C161.21 21.3934 161.338 21.8861 161.467 22.3788C155.832 22.4003 150.198 22.4217 144.563 22.4431C138.929 22.4645 133.295 22.486 127.66 22.5074C127.681 22.2075 127.703 21.9075 127.724 21.6076C127.767 21.0077 128.067 20.0865 128.624 18.8439C129.181 17.6013 129.738 16.5944 130.295 15.8232C130.852 15.0519 131.452 14.3449 132.095 13.7022C132.737 13.0595 133.766 12.2883 135.18 11.3885C136.594 10.4887 137.644 9.91022 138.329 9.65313C139.015 9.39605 139.893 9.16039 140.964 8.94615C142.035 8.73191 143.214 8.62479 144.499 8.62479ZM25.6615 64.5408C33.3312 64.5408 37.3589 64.5837 37.7445 64.6694C38.1302 64.7551 38.7086 65.0121 39.4799 65.4406C40.2511 65.8691 40.8938 66.3833 41.408 66.9831C41.9222 67.583 42.3292 68.29 42.6292 69.1041C42.9291 69.9182 43.0576 70.818 43.0148 71.8035C42.9719 72.789 42.7577 73.6888 42.3721 74.5029C41.9864 75.317 41.558 75.9597 41.0866 76.431C40.6153 76.9023 40.1654 77.2665 39.7369 77.5236C39.3085 77.7807 38.8157 77.9949 38.2587 78.1663C37.7017 78.3377 33.6954 78.4448 26.24 78.4877C18.7845 78.5305 14.7568 78.5091 14.157 78.4234C13.5571 78.3377 12.893 78.1235 12.1646 77.7807C11.4362 77.4379 10.7934 76.988 10.2364 76.431C9.67941 75.874 9.20808 75.1456 8.82246 74.2458C8.43683 73.346 8.24402 72.4462 8.24402 71.5464C8.24402 70.6466 8.41541 69.7682 8.75819 68.9113C9.10097 68.0543 9.52944 67.3473 10.0436 66.7903C10.5578 66.2333 11.1148 65.7834 11.7147 65.4406C12.3145 65.0978 12.8715 64.8622 13.3857 64.7336C13.8999 64.6051 17.9918 64.5408 25.6615 64.5408Z" fill="#000000" fill-rule="nonzero" opacity="1" stroke="none"/>
</g>
</svg>
