<?xml version="1.0" encoding="UTF-8" standalone="no"?>
<!DOCTYPE svg PUBLIC "-//W3C//DTD SVG 1.1//EN" "http://www.w3.org/Graphics/SVG/1.1/DTD/svg11.dtd">
<!-- Created with Vectornator (http://vectornator.io/) -->
<svg height="100%" stroke-miterlimit="10" style="fill-rule:nonzero;clip-rule:evenodd;stroke-linecap:round;stroke-linejoin:round;" version="1.1" viewBox="0 0 170 170" width="100%" xml:space="preserve" xmlns="http://www.w3.org/2000/svg" xmlns:vectornator="http://vectornator.io" xmlns:xlink="http://www.w3.org/1999/xlink">
<defs/>
<g id="Untitled" vectornator:layerName="Untitled">
<path d="M21.8053 53.4623C20.7341 53.6337 19.5772 53.9122 18.3346 54.2979C17.092 54.6835 15.978 55.112 14.9925 55.5833C14.007 56.0546 12.9787 56.6545 11.9075 57.3829C10.8363 58.1113 9.7651 58.9897 8.69391 60.018C7.62273 61.0463 6.85147 61.8604 6.38015 62.4603C5.90883 63.0602 5.41608 63.7672 4.90191 64.5813C4.38774 65.3954 3.8093 66.5522 3.16658 68.0519C2.52387 69.5516 2.03112 71.1798 1.68834 72.9365C1.34556 74.6933 1.17417 76.2786 1.17417 77.6926C1.17417 79.1066 1.30272 80.542 1.5598 81.9988C1.81689 83.4556 2.18109 84.8267 2.65241 86.1121C3.12374 87.3976 3.61648 88.5116 4.13065 89.4542C4.64482 90.3969 5.28754 91.3824 6.05879 92.4107C6.83005 93.4391 7.6013 94.3174 8.37256 95.0459C9.14381 95.7743 9.63656 96.3099 9.8508 96.6526C10.065 96.9954 10.2364 97.381 10.365 97.8095C10.4935 98.238 10.5578 98.7736 10.5578 99.4163C10.5578 100.059 10.0436 101.516 9.01527 103.787C7.98693 106.058 7.21568 108.05 6.7015 109.764C6.18733 111.478 5.56605 112.763 4.83764 113.62C4.10923 114.477 3.44509 115.463 2.84523 116.577C2.24536 117.691 1.81689 118.805 1.5598 119.919C1.30272 121.033 1.21702 122.383 1.30272 123.968C1.38841 125.553 1.68834 126.989 2.20251 128.274C2.71668 129.56 3.2737 130.609 3.87357 131.423C4.47343 132.238 5.26611 133.052 6.25161 133.866C7.2371 134.68 8.37256 135.365 9.65798 135.922C10.9434 136.479 11.9289 136.822 12.6145 136.951C13.3 137.079 17.7776 137.122 26.0472 137.079C34.3167 137.036 39.0728 136.822 40.3154 136.437C41.558 136.051 42.6506 135.558 43.5932 134.958C44.5359 134.358 45.4357 133.609 46.2926 132.709C47.1496 131.809 47.8566 130.845 48.4136 129.817C48.9706 128.788 49.3991 127.631 49.699 126.346C49.9989 125.061 50.1275 123.818 50.0846 122.618C50.0418 121.419 49.8275 120.197 49.4419 118.955C49.0563 117.712 48.5635 116.62 47.9637 115.677C47.3638 114.734 46.7211 113.92 46.0355 113.235C45.35 112.549 44.7287 112.013 44.1717 111.628C43.6146 111.242 42.7148 110.792 41.4723 110.278C40.2297 109.764 39.2228 109.443 38.4515 109.314C37.6803 109.186 33.824 109.121 26.8827 109.121C19.9414 109.121 16.2994 108.993 15.9566 108.736C15.6138 108.479 15.421 108.093 15.3781 107.579C15.3353 107.065 15.5924 106.293 16.1494 105.265C16.7064 104.237 17.1135 103.594 17.3705 103.337C17.6276 103.08 18.0347 102.801 18.5917 102.501C19.1487 102.201 19.6415 102.009 20.0699 101.923C20.4984 101.837 21.2054 101.859 22.1909 101.987C23.1764 102.116 24.676 102.137 26.6899 102.051C28.7037 101.966 30.5033 101.709 32.0887 101.28C33.674 100.852 35.0451 100.359 36.202 99.8019C37.3589 99.2449 38.6658 98.4308 40.1226 97.3596C41.5794 96.2884 42.6934 95.3458 43.4647 94.5317C44.2359 93.7176 44.9429 92.8606 45.5856 91.9608C46.2283 91.061 46.8496 90.0327 47.4495 88.8758C48.0494 87.7189 48.5635 86.4549 48.992 85.0838C49.4205 83.7127 49.7204 82.4487 49.8918 81.2918C50.0632 80.1349 50.1489 78.9566 50.1489 77.7569C50.1489 76.5571 50.0632 75.3574 49.8918 74.1577C49.7204 72.958 49.4633 71.7796 49.1206 70.6228C48.7778 69.4659 48.3065 68.2661 47.7066 67.0236C47.1067 65.781 46.5283 64.7955 45.9713 64.0671C45.4142 63.3387 45.0929 62.7388 45.0072 62.2675C44.9215 61.7962 45.05 61.3463 45.3928 60.9178C45.7356 60.4893 46.614 60.2537 48.0279 60.2108C49.4419 60.168 50.1489 58.9897 50.1489 56.6759C50.1489 55.519 50.1489 54.3621 50.1489 53.2052C45.6928 53.2052 41.2366 53.2052 36.7805 53.2052C27.8682 53.2052 22.8764 53.2909 21.8053 53.4623ZM73.4794 53.7194C71.6369 54.0622 69.923 54.5764 68.3377 55.2619C66.7523 55.9475 65.3169 56.7402 64.0315 57.64C62.7461 58.5398 61.6535 59.4396 60.7537 60.3394C59.8539 61.2392 58.9755 62.2889 58.1185 63.4886C57.2616 64.6884 56.4903 66.0381 55.8048 67.5377C55.1192 69.0374 54.5836 70.687 54.198 72.4866C53.8124 74.2862 53.6195 76.0215 53.6195 77.6926C53.6195 79.3637 53.7695 80.949 54.0694 82.4487C54.3694 83.9483 54.8835 85.5551 55.612 87.269C56.3404 88.9829 57.0688 90.3755 57.7972 91.4467C58.5256 92.5178 59.3825 93.5676 60.368 94.596C61.3535 95.6243 62.4676 96.5884 63.7101 97.4882C64.9527 98.388 66.1953 99.1378 67.4379 99.7377C68.6804 100.338 70.1158 100.852 71.744 101.28C73.3723 101.709 75.0862 101.966 76.8858 102.051C78.6853 102.137 80.3778 102.051 81.9632 101.794C83.5485 101.537 85.0911 101.13 86.5907 100.573C88.0904 100.016 89.6115 99.2449 91.154 98.2594C92.6965 97.2739 93.9605 96.3099 94.946 95.3672C95.9315 94.4246 96.9384 93.2248 97.9667 91.768C98.9951 90.3112 99.852 88.7687 100.538 87.1405C101.223 85.5123 101.716 83.9055 102.016 82.3201C102.316 80.7348 102.466 79.1923 102.466 77.6926C102.466 76.1929 102.316 74.6504 102.016 73.0651C101.716 71.4797 101.202 69.8301 100.473 68.1162C99.7449 66.4023 99.0165 65.0097 98.2881 63.9385C97.5597 62.8674 96.6813 61.7962 95.653 60.725C94.6246 59.6538 93.4035 58.6255 91.9895 57.64C90.5755 56.6545 89.183 55.8618 87.8119 55.2619C86.4407 54.6621 84.9839 54.1907 83.4414 53.848C81.8989 53.5052 80.3136 53.3124 78.6853 53.2695C77.0571 53.2267 75.3218 53.3766 73.4794 53.7194ZM140.836 53.4623C139.679 53.6337 138.372 53.9551 136.915 54.4264C135.458 54.8977 134.237 55.3905 133.252 55.9046C132.266 56.4188 131.238 57.0615 130.167 57.8328C129.095 58.604 128.003 59.5681 126.889 60.725C125.775 61.8819 124.811 63.0816 123.997 64.3242C123.183 65.5668 122.497 66.8522 121.94 68.1805C121.383 69.5087 120.954 70.837 120.654 72.1653C120.355 73.4935 117.848 74.1577 113.135 74.1577C108.422 74.1577 106.043 75.3146 106.001 77.6283C105.979 78.7852 105.958 79.9421 105.936 81.099C108.314 81.1204 110.692 81.1418 113.07 81.1633C117.827 81.2061 120.376 81.9559 120.719 83.4127C121.062 84.8696 121.576 86.3478 122.261 87.8475C122.947 89.3471 123.718 90.6968 124.575 91.8966C125.432 93.0963 126.417 94.2317 127.532 95.3029C128.646 96.3741 129.781 97.2953 130.938 98.0666C132.095 98.8379 133.509 99.5663 135.18 100.252C136.851 100.937 138.329 101.409 139.615 101.666C140.9 101.923 142.292 102.073 143.792 102.116C145.292 102.159 146.663 102.094 147.906 101.923C149.148 101.751 150.284 101.516 151.312 101.216C152.34 100.916 153.497 100.466 154.783 99.8662C156.068 99.2663 157.075 98.7307 157.803 98.2594C158.532 97.7881 159.239 97.2739 159.924 96.7169C160.61 96.1599 161.36 95.4529 162.174 94.596C162.988 93.739 163.652 92.9677 164.166 92.2822C164.68 91.5966 165.216 90.7397 165.773 89.7113C166.051 89.1972 166.33 88.683 166.608 88.1688C165.473 88.1688 164.338 88.1688 163.202 88.1688C160.931 88.1688 159.646 88.2117 159.346 88.2974C159.046 88.3831 158.703 88.533 158.317 88.7473C157.932 88.9615 157.375 89.4328 156.646 90.1612C155.918 90.8896 155.254 91.4681 154.654 91.8966C154.054 92.325 153.047 92.8606 151.633 93.5033C150.219 94.1461 148.955 94.5745 147.841 94.7888C146.727 95.003 145.313 95.0673 143.599 94.9816C141.885 94.8959 140.471 94.6816 139.357 94.3389C138.243 93.9961 137.344 93.6533 136.658 93.3105C135.972 92.9677 135.158 92.4536 134.216 91.768C133.273 91.0825 132.48 90.3969 131.838 89.7113C131.195 89.0258 130.595 88.2759 130.038 87.4618C129.481 86.6477 128.988 85.7694 128.56 84.8267C128.131 83.8841 127.853 83.07 127.724 82.3844C127.66 82.0416 127.596 81.6988 127.532 81.3561C133.637 81.3346 139.743 81.3132 145.849 81.2918C158.06 81.2489 164.509 81.1204 165.194 80.9062C165.88 80.6919 166.459 80.392 166.93 80.0064C167.401 79.6207 167.808 79.128 168.151 78.5281C168.494 77.9283 168.708 77.307 168.794 76.6643C168.879 76.0215 168.794 74.9504 168.537 73.4507C168.28 71.951 167.915 70.5585 167.444 69.2731C166.973 67.9876 166.351 66.6808 165.58 65.3525C164.809 64.0242 163.802 62.6745 162.559 61.3034C161.317 59.9323 160.181 58.8611 159.153 58.0899C158.125 57.3186 156.882 56.5688 155.425 55.8404C153.968 55.112 152.447 54.5335 150.862 54.105C149.277 53.6766 147.498 53.4195 145.527 53.3338C143.556 53.2481 141.993 53.2909 140.836 53.4623ZM26.8184 60.2751C28.061 60.3608 29.1108 60.5107 29.9677 60.725C30.8247 60.9392 31.8102 61.3034 32.9242 61.8176C34.0382 62.3318 35.1094 62.9745 36.1378 63.7457C37.1661 64.517 38.0659 65.3525 38.8371 66.2523C39.6084 67.1521 40.294 68.1376 40.8938 69.2088C41.4937 70.28 41.9222 71.1798 42.1793 71.9082C42.4363 72.6366 42.6506 73.4721 42.822 74.4148C42.9934 75.3574 43.0791 76.4714 43.0791 77.7569C43.0791 79.0423 42.9719 80.1992 42.7577 81.2275C42.5435 82.2559 42.1793 83.3699 41.6651 84.5696C41.1509 85.7694 40.5939 86.7977 39.994 87.6547C39.3942 88.5116 38.7086 89.3257 37.9374 90.097C37.1661 90.8682 36.3734 91.5324 35.5593 92.0894C34.7452 92.6464 33.7383 93.182 32.5386 93.6962C31.3388 94.2103 30.2034 94.5745 29.1322 94.7888C28.061 95.003 26.8827 95.1101 25.5973 95.1101C24.3118 95.1101 23.155 95.003 22.1266 94.7888C21.0983 94.5745 19.9842 94.2103 18.7845 93.6962C17.5848 93.182 16.5779 92.6464 15.7638 92.0894C14.9497 91.5324 14.2641 90.9968 13.7071 90.4826C13.1501 89.9684 12.4859 89.1972 11.7147 88.1688C10.9434 87.1405 10.3435 86.1764 9.91507 85.2766C9.48659 84.3768 9.10097 83.2414 8.75819 81.8702C8.41541 80.4991 8.24402 79.0851 8.24402 77.6283C8.24402 76.1715 8.32971 75.0361 8.5011 74.222C8.67249 73.4079 8.92958 72.5295 9.27236 71.5868C9.61514 70.6442 10.1507 69.5944 10.8791 68.4375C11.6075 67.2807 12.4216 66.2523 13.3214 65.3525C14.2212 64.4527 15.121 63.7029 16.0208 63.103C16.9206 62.5032 18.0347 61.9461 19.3629 61.432C20.6912 60.9178 21.9552 60.575 23.155 60.4036C24.3547 60.2322 25.5758 60.1894 26.8184 60.2751ZM78.0426 60.2751C79.3281 60.2751 80.4207 60.3608 81.3205 60.5322C82.2203 60.7036 83.1415 60.9606 84.0841 61.3034C85.0268 61.6462 85.9694 62.0961 86.9121 62.6531C87.8547 63.2101 88.7974 63.9171 89.74 64.7741C90.6827 65.631 91.5182 66.5737 92.2466 67.602C92.975 68.6304 93.5963 69.7658 94.1105 71.0084C94.6246 72.251 94.9674 73.3007 95.1388 74.1577C95.3102 75.0146 95.4173 75.9573 95.4602 76.9856C95.503 78.014 95.4387 79.1066 95.2673 80.2635C95.0959 81.4203 94.7746 82.6201 94.3033 83.8626C93.8319 85.1052 93.2749 86.2193 92.6322 87.2048C91.9895 88.1902 91.3896 88.9829 90.8326 89.5828C90.2756 90.1827 89.4829 90.8682 88.4546 91.6395C87.4262 92.4107 86.2694 93.0749 84.9839 93.6319C83.6985 94.1889 82.4988 94.5745 81.3847 94.7888C80.2707 95.003 79.1567 95.1101 78.0426 95.1101C76.9286 95.1101 75.8146 95.003 74.7005 94.7888C73.5865 94.5745 72.3868 94.1889 71.1013 93.6319C69.8159 93.0749 68.7019 92.4536 67.7592 91.768C66.8166 91.0825 65.9382 90.2898 65.1241 89.39C64.31 88.4902 63.5816 87.4833 62.9389 86.3692C62.2962 85.2552 61.8034 84.1626 61.4606 83.0914C61.1179 82.0202 60.8822 81.0561 60.7537 80.1992C60.6251 79.3422 60.6037 78.1639 60.6894 76.6643C60.7751 75.1646 60.9679 73.9006 61.2678 72.8723C61.5678 71.8439 61.9105 70.9227 62.2962 70.1086C62.6818 69.2945 63.196 68.4375 63.8387 67.5377C64.4814 66.6379 65.2098 65.8024 66.0239 65.0312C66.838 64.2599 67.6735 63.5958 68.5305 63.0387C69.3874 62.4817 70.3301 61.989 71.3584 61.5605C72.3868 61.132 73.4365 60.8107 74.5077 60.5964C75.5789 60.3822 76.7572 60.2751 78.0426 60.2751ZM144.499 60.2751C145.785 60.2751 146.877 60.3608 147.777 60.5322C148.677 60.7036 149.491 60.9178 150.219 61.1749C150.948 61.432 151.826 61.839 152.854 62.396C153.883 62.9531 154.89 63.66 155.875 64.517C156.861 65.3739 157.653 66.188 158.253 66.9593C158.853 67.7306 159.41 68.6089 159.924 69.5944C160.438 70.5799 160.824 71.5654 161.081 72.5509C161.21 73.0436 161.338 73.5364 161.467 74.0291C155.832 74.0506 150.198 74.072 144.563 74.0934C138.929 74.1148 133.295 74.1363 127.66 74.1577C127.681 73.8577 127.703 73.5578 127.724 73.2579C127.767 72.658 128.067 71.7368 128.624 70.4942C129.181 69.2516 129.738 68.2447 130.295 67.4735C130.852 66.7022 131.452 65.9952 132.095 65.3525C132.737 64.7098 133.766 63.9385 135.18 63.0387C136.594 62.139 137.644 61.5605 138.329 61.3034C139.015 61.0463 139.893 60.8107 140.964 60.5964C142.035 60.3822 143.214 60.2751 144.499 60.2751ZM25.6615 116.191C33.3312 116.191 37.3589 116.234 37.7445 116.32C38.1302 116.405 38.7086 116.662 39.4799 117.091C40.2511 117.519 40.8938 118.034 41.408 118.633C41.9222 119.233 42.3292 119.94 42.6292 120.754C42.9291 121.568 43.0576 122.468 43.0148 123.454C42.9719 124.439 42.7577 125.339 42.3721 126.153C41.9864 126.967 41.558 127.61 41.0866 128.081C40.6153 128.553 40.1654 128.917 39.7369 129.174C39.3085 129.431 38.8157 129.645 38.2587 129.817C37.7017 129.988 33.6954 130.095 26.24 130.138C18.7845 130.181 14.7568 130.159 14.157 130.074C13.5571 129.988 12.893 129.774 12.1646 129.431C11.4362 129.088 10.7934 128.638 10.2364 128.081C9.67941 127.524 9.20808 126.796 8.82246 125.896C8.43683 124.996 8.24402 124.096 8.24402 123.197C8.24402 122.297 8.41541 121.419 8.75819 120.562C9.10097 119.705 9.52944 118.998 10.0436 118.441C10.5578 117.884 11.1148 117.434 11.7147 117.091C12.3145 116.748 12.8715 116.512 13.3857 116.384C13.8999 116.255 17.9918 116.191 25.6615 116.191Z" fill="#000000" fill-rule="nonzero" opacity="1" stroke="none"/>
</g>
</svg>
