<?xml version="1.0" encoding="UTF-8" standalone="no"?>
<!DOCTYPE svg PUBLIC "-//W3C//DTD SVG 1.1//EN" "http://www.w3.org/Graphics/SVG/1.1/DTD/svg11.dtd">
<!-- Created with Vectornator (http://vectornator.io/) -->
<svg height="100%" stroke-miterlimit="10" style="fill-rule:nonzero;clip-rule:evenodd;stroke-linecap:round;stroke-linejoin:round;" version="1.1" viewBox="0 0 535.5 535.5" width="100%" xml:space="preserve" xmlns="http://www.w3.org/2000/svg" xmlns:vectornator="http://vectornator.io" xmlns:xlink="http://www.w3.org/1999/xlink">
<defs/>
<clipPath id="ArtboardFrame">
<rect height="535.5" width="535.5" x="0" y="0"/>
</clipPath>
<g clip-path="url(#ArtboardFrame)" id="Untitled" vectornator:layerName="Untitled">
<path d="M265.036 534.589C176.279 534.485 104.351 462.563 104.239 373.806L104.239 161.809C104.239 73.0035 176.23 1.01206 265.036 1.01206C353.842 1.01206 425.834 73.0035 425.834 161.809L425.834 373.806C425.73 462.569 353.799 534.5 265.036 534.604M265.036 12.266C182.476 12.3448 115.565 79.2491 115.478 161.809L115.478 373.806C115.478 456.405 182.437 523.365 265.036 523.365C347.635 523.365 414.595 456.405 414.595 373.806L414.595 161.809C414.516 79.2432 347.603 12.3298 265.036 12.251" fill="#000000" fill-rule="nonzero" opacity="1" stroke="none"/>
<path d="M197.52 1185.1C210.89 1185.1 317.89 1185.1 331.27 1185.1C339.18 1185.1 345.6 1178.68 345.6 1170.77C345.6 1169.82 345.6 1165.04 345.6 1156.44L183.19 1156.44L183.19 1170.77C187.47 1180.33 192.24 1185.1 197.52 1185.1Z" fill="#000000" fill-rule="nonzero" opacity="1" stroke="none"/>
<path d="M197.52 1185.1C210.89 1185.1 317.89 1185.1 331.27 1185.1C339.18 1185.1 345.6 1178.68 345.6 1170.77C345.6 1169.82 345.6 1165.04 345.6 1156.44L183.19 1156.44L183.19 1170.77C187.47 1180.33 192.24 1185.1 197.52 1185.1Z" fill="#000000" fill-opacity="0" fill-rule="nonzero" opacity="1" stroke="#000000" stroke-linecap="butt" stroke-linejoin="miter" stroke-opacity="0" stroke-width="1"/>
<path d="M201.686 102.121C200.615 102.293 199.458 102.571 198.216 102.957C196.973 103.342 195.859 103.771 194.873 104.242C193.888 104.714 192.86 105.313 191.788 106.042C190.717 106.77 189.646 107.649 188.575 108.677C187.504 109.705 186.732 110.519 186.261 111.119C185.79 111.719 185.297 112.426 184.783 113.24C184.269 114.054 183.69 115.211 183.048 116.711C182.405 118.211 181.912 119.839 181.569 121.596C181.227 123.352 181.055 124.938 181.055 126.352C181.055 127.766 181.184 129.201 181.441 130.658C181.698 132.115 182.062 133.486 182.533 134.771C183.005 136.057 183.497 137.171 184.012 138.113C184.526 139.056 185.168 140.041 185.94 141.07C186.711 142.098 187.482 142.976 188.254 143.705C189.025 144.433 189.518 144.969 189.732 145.312C189.946 145.654 190.117 146.04 190.246 146.469C190.374 146.897 190.439 147.433 190.439 148.075C190.439 148.718 189.925 150.175 188.896 152.446C187.868 154.717 187.097 156.709 186.582 158.423C186.068 160.137 185.447 161.422 184.719 162.279C183.99 163.136 183.326 164.122 182.726 165.236C182.126 166.35 181.698 167.464 181.441 168.578C181.184 169.692 181.098 171.042 181.184 172.627C181.269 174.212 181.569 175.648 182.083 176.933C182.598 178.219 183.155 179.268 183.755 180.082C184.354 180.897 185.147 181.711 186.133 182.525C187.118 183.339 188.254 184.024 189.539 184.581C190.824 185.138 191.81 185.481 192.495 185.61C193.181 185.738 197.659 185.781 205.928 185.738C214.198 185.695 218.954 185.481 220.196 185.096C221.439 184.71 222.532 184.217 223.474 183.617C224.417 183.017 225.317 182.268 226.174 181.368C227.031 180.468 227.737 179.504 228.295 178.476C228.852 177.447 229.28 176.29 229.58 175.005C229.88 173.72 230.008 172.477 229.966 171.277C229.923 170.078 229.708 168.856 229.323 167.614C228.937 166.371 228.444 165.279 227.845 164.336C227.245 163.393 226.602 162.579 225.916 161.894C225.231 161.208 224.61 160.672 224.053 160.287C223.496 159.901 222.596 159.451 221.353 158.937C220.111 158.423 219.104 158.102 218.332 157.973C217.561 157.845 213.705 157.78 206.764 157.78C199.822 157.78 196.18 157.652 195.838 157.395C195.495 157.138 195.302 156.752 195.259 156.238C195.216 155.724 195.473 154.952 196.03 153.924C196.587 152.896 196.994 152.253 197.251 151.996C197.509 151.739 197.916 151.46 198.473 151.16C199.03 150.86 199.522 150.668 199.951 150.582C200.379 150.496 201.086 150.518 202.072 150.646C203.057 150.775 204.557 150.796 206.571 150.71C208.585 150.625 210.384 150.368 211.97 149.939C213.555 149.511 214.926 149.018 216.083 148.461C217.24 147.904 218.547 147.09 220.004 146.019C221.46 144.947 222.574 144.005 223.346 143.191C224.117 142.377 224.824 141.52 225.467 140.62C226.109 139.72 226.731 138.692 227.33 137.535C227.93 136.378 228.444 135.114 228.873 133.743C229.301 132.372 229.601 131.108 229.773 129.951C229.944 128.794 230.03 127.616 230.03 126.416C230.03 125.216 229.944 124.016 229.773 122.817C229.601 121.617 229.344 120.439 229.001 119.282C228.659 118.125 228.187 116.925 227.588 115.683C226.988 114.44 226.409 113.455 225.852 112.726C225.295 111.998 224.974 111.398 224.888 110.927C224.802 110.455 224.931 110.005 225.274 109.577C225.617 109.148 226.495 108.913 227.909 108.87C229.323 108.827 230.03 107.649 230.03 105.335C230.03 104.178 230.03 103.021 230.03 101.864C225.574 101.864 221.118 101.864 216.661 101.864C207.749 101.864 202.757 101.95 201.686 102.121ZM253.36 102.378C251.518 102.721 249.804 103.235 248.219 103.921C246.633 104.606 245.198 105.399 243.912 106.299C242.627 107.199 241.534 108.099 240.635 108.998C239.735 109.898 238.856 110.948 237.999 112.148C237.143 113.347 236.371 114.697 235.686 116.197C235 117.696 234.465 119.346 234.079 121.146C233.693 122.945 233.5 124.681 233.5 126.352C233.5 128.023 233.65 129.608 233.95 131.108C234.25 132.607 234.764 134.214 235.493 135.928C236.221 137.642 236.95 139.034 237.678 140.106C238.407 141.177 239.263 142.227 240.249 143.255C241.234 144.283 242.348 145.247 243.591 146.147C244.834 147.047 246.076 147.797 247.319 148.397C248.561 148.997 249.997 149.511 251.625 149.939C253.253 150.368 254.967 150.625 256.767 150.71C258.566 150.796 260.259 150.71 261.844 150.453C263.429 150.196 264.972 149.789 266.472 149.232C267.971 148.675 269.492 147.904 271.035 146.918C272.577 145.933 273.841 144.969 274.827 144.026C275.812 143.084 276.819 141.884 277.848 140.427C278.876 138.97 279.733 137.428 280.419 135.799C281.104 134.171 281.597 132.565 281.897 130.979C282.197 129.394 282.347 127.851 282.347 126.352C282.347 124.852 282.197 123.309 281.897 121.724C281.597 120.139 281.083 118.489 280.354 116.775C279.626 115.061 278.897 113.669 278.169 112.598C277.441 111.526 276.562 110.455 275.534 109.384C274.506 108.313 273.284 107.284 271.87 106.299C270.456 105.313 269.064 104.521 267.693 103.921C266.322 103.321 264.865 102.85 263.322 102.507C261.78 102.164 260.194 101.971 258.566 101.929C256.938 101.886 255.203 102.036 253.36 102.378ZM320.717 102.121C319.56 102.293 318.253 102.614 316.796 103.085C315.339 103.557 314.118 104.049 313.133 104.564C312.147 105.078 311.119 105.721 310.048 106.492C308.976 107.263 307.884 108.227 306.77 109.384C305.656 110.541 304.692 111.741 303.878 112.983C303.063 114.226 302.378 115.511 301.821 116.839C301.264 118.168 300.835 119.496 300.535 120.824C300.236 122.153 297.729 122.817 293.016 122.817C288.302 122.817 285.924 123.974 285.882 126.287C285.86 127.444 285.839 128.601 285.817 129.758C288.195 129.779 290.573 129.801 292.951 129.822C297.708 129.865 300.257 130.615 300.6 132.072C300.942 133.529 301.457 135.007 302.142 136.506C302.828 138.006 303.599 139.356 304.456 140.556C305.313 141.755 306.298 142.891 307.412 143.962C308.527 145.033 309.662 145.954 310.819 146.726C311.976 147.497 313.39 148.225 315.061 148.911C316.732 149.596 318.21 150.068 319.495 150.325C320.781 150.582 322.173 150.732 323.673 150.775C325.173 150.818 326.544 150.753 327.786 150.582C329.029 150.411 330.165 150.175 331.193 149.875C332.221 149.575 333.378 149.125 334.663 148.525C335.949 147.925 336.956 147.39 337.684 146.918C338.413 146.447 339.12 145.933 339.805 145.376C340.491 144.819 341.241 144.112 342.055 143.255C342.869 142.398 343.533 141.627 344.047 140.941C344.561 140.256 345.097 139.399 345.654 138.37C345.932 137.856 346.211 137.342 346.489 136.828C345.354 136.828 344.218 136.828 343.083 136.828C340.812 136.828 339.527 136.871 339.227 136.956C338.927 137.042 338.584 137.192 338.198 137.406C337.813 137.621 337.256 138.092 336.527 138.82C335.799 139.549 335.135 140.127 334.535 140.556C333.935 140.984 332.928 141.52 331.514 142.162C330.1 142.805 328.836 143.234 327.722 143.448C326.608 143.662 325.194 143.726 323.48 143.641C321.766 143.555 320.352 143.341 319.238 142.998C318.124 142.655 317.225 142.312 316.539 141.97C315.853 141.627 315.039 141.113 314.097 140.427C313.154 139.741 312.361 139.056 311.719 138.37C311.076 137.685 310.476 136.935 309.919 136.121C309.362 135.307 308.869 134.428 308.441 133.486C308.012 132.543 307.734 131.729 307.605 131.043C307.541 130.701 307.477 130.358 307.412 130.015C313.518 129.994 319.624 129.972 325.73 129.951C337.941 129.908 344.39 129.779 345.075 129.565C345.761 129.351 346.339 129.051 346.811 128.665C347.282 128.28 347.689 127.787 348.032 127.187C348.375 126.587 348.589 125.966 348.675 125.323C348.76 124.681 348.675 123.609 348.418 122.11C348.16 120.61 347.796 119.218 347.325 117.932C346.854 116.647 346.232 115.34 345.461 114.012C344.69 112.683 343.683 111.334 342.44 109.962C341.198 108.591 340.062 107.52 339.034 106.749C338.006 105.978 336.763 105.228 335.306 104.499C333.849 103.771 332.328 103.193 330.743 102.764C329.158 102.336 327.379 102.078 325.408 101.993C323.437 101.907 321.874 101.95 320.717 102.121ZM206.699 108.934C207.942 109.02 208.992 109.17 209.849 109.384C210.706 109.598 211.691 109.962 212.805 110.477C213.919 110.991 214.99 111.633 216.019 112.405C217.047 113.176 217.947 114.012 218.718 114.911C219.489 115.811 220.175 116.797 220.775 117.868C221.375 118.939 221.803 119.839 222.06 120.567C222.317 121.296 222.532 122.131 222.703 123.074C222.874 124.016 222.96 125.13 222.96 126.416C222.96 127.701 222.853 128.858 222.639 129.887C222.424 130.915 222.06 132.029 221.546 133.229C221.032 134.428 220.475 135.457 219.875 136.314C219.275 137.171 218.59 137.985 217.818 138.756C217.047 139.527 216.254 140.191 215.44 140.748C214.626 141.305 213.619 141.841 212.42 142.355C211.22 142.869 210.084 143.234 209.013 143.448C207.942 143.662 206.764 143.769 205.478 143.769C204.193 143.769 203.036 143.662 202.008 143.448C200.979 143.234 199.865 142.869 198.665 142.355C197.466 141.841 196.459 141.305 195.645 140.748C194.831 140.191 194.145 139.656 193.588 139.142C193.031 138.627 192.367 137.856 191.596 136.828C190.824 135.799 190.224 134.835 189.796 133.936C189.368 133.036 188.982 131.9 188.639 130.529C188.296 129.158 188.125 127.744 188.125 126.287C188.125 124.831 188.211 123.695 188.382 122.881C188.553 122.067 188.811 121.188 189.153 120.246C189.496 119.303 190.032 118.253 190.76 117.097C191.488 115.94 192.303 114.911 193.202 114.012C194.102 113.112 195.002 112.362 195.902 111.762C196.802 111.162 197.916 110.605 199.244 110.091C200.572 109.577 201.836 109.234 203.036 109.063C204.236 108.891 205.457 108.848 206.699 108.934ZM257.924 108.934C259.209 108.934 260.302 109.02 261.201 109.191C262.101 109.363 263.022 109.62 263.965 109.962C264.908 110.305 265.85 110.755 266.793 111.312C267.736 111.869 268.678 112.576 269.621 113.433C270.564 114.29 271.399 115.233 272.128 116.261C272.856 117.289 273.477 118.425 273.991 119.667C274.506 120.91 274.848 121.96 275.02 122.817C275.191 123.674 275.298 124.616 275.341 125.645C275.384 126.673 275.32 127.766 275.148 128.922C274.977 130.079 274.656 131.279 274.184 132.522C273.713 133.764 273.156 134.878 272.513 135.864C271.87 136.849 271.271 137.642 270.714 138.242C270.157 138.842 269.364 139.527 268.336 140.298C267.307 141.07 266.15 141.734 264.865 142.291C263.579 142.848 262.38 143.234 261.266 143.448C260.152 143.662 259.038 143.769 257.924 143.769C256.81 143.769 255.696 143.662 254.581 143.448C253.467 143.234 252.268 142.848 250.982 142.291C249.697 141.734 248.583 141.113 247.64 140.427C246.698 139.741 245.819 138.949 245.005 138.049C244.191 137.149 243.463 136.142 242.82 135.028C242.177 133.914 241.684 132.822 241.342 131.75C240.999 130.679 240.763 129.715 240.635 128.858C240.506 128.001 240.485 126.823 240.57 125.323C240.656 123.824 240.849 122.56 241.149 121.531C241.449 120.503 241.791 119.582 242.177 118.768C242.563 117.954 243.077 117.097 243.72 116.197C244.362 115.297 245.091 114.461 245.905 113.69C246.719 112.919 247.554 112.255 248.411 111.698C249.268 111.141 250.211 110.648 251.239 110.22C252.268 109.791 253.317 109.47 254.389 109.255C255.46 109.041 256.638 108.934 257.924 108.934ZM324.38 108.934C325.666 108.934 326.758 109.02 327.658 109.191C328.558 109.363 329.372 109.577 330.1 109.834C330.829 110.091 331.707 110.498 332.735 111.055C333.764 111.612 334.771 112.319 335.756 113.176C336.742 114.033 337.534 114.847 338.134 115.618C338.734 116.39 339.291 117.268 339.805 118.253C340.319 119.239 340.705 120.224 340.962 121.21C341.091 121.703 341.219 122.195 341.348 122.688C335.713 122.71 330.079 122.731 324.444 122.752C318.81 122.774 313.175 122.795 307.541 122.817C307.562 122.517 307.584 122.217 307.605 121.917C307.648 121.317 307.948 120.396 308.505 119.153C309.062 117.911 309.619 116.904 310.176 116.132C310.733 115.361 311.333 114.654 311.976 114.012C312.618 113.369 313.647 112.598 315.061 111.698C316.475 110.798 317.524 110.22 318.21 109.962C318.896 109.705 319.774 109.47 320.845 109.255C321.916 109.041 323.095 108.934 324.38 108.934ZM205.542 164.85C213.212 164.85 217.24 164.893 217.625 164.979C218.011 165.064 218.59 165.321 219.361 165.75C220.132 166.178 220.775 166.693 221.289 167.292C221.803 167.892 222.21 168.599 222.51 169.413C222.81 170.227 222.939 171.127 222.896 172.113C222.853 173.098 222.639 173.998 222.253 174.812C221.867 175.626 221.439 176.269 220.968 176.74C220.496 177.212 220.046 177.576 219.618 177.833C219.189 178.09 218.697 178.304 218.14 178.476C217.583 178.647 213.576 178.754 206.121 178.797C198.665 178.84 194.638 178.818 194.038 178.733C193.438 178.647 192.774 178.433 192.046 178.09C191.317 177.747 190.674 177.297 190.117 176.74C189.56 176.183 189.089 175.455 188.703 174.555C188.318 173.655 188.125 172.755 188.125 171.856C188.125 170.956 188.296 170.078 188.639 169.221C188.982 168.364 189.41 167.657 189.925 167.1C190.439 166.543 190.996 166.093 191.596 165.75C192.195 165.407 192.752 165.171 193.267 165.043C193.781 164.914 197.873 164.85 205.542 164.85Z" fill="#000000" fill-rule="nonzero" opacity="1" stroke="none"/>
<path d="M276.509 287.446L280.233 287.98L283.903 288.651L287.527 289.466L291.087 290.427L294.603 291.523L298.046 292.746L301.434 294.096L304.75 295.582L308.003 297.186L311.174 298.916L314.282 300.755L317.299 302.712L320.243 304.787L323.097 306.971L325.87 309.254L328.542 311.637L331.125 314.128L333.616 316.71L336.008 319.392L338.291 322.156L340.466 325.01L342.541 327.954L344.498 330.98L346.346 334.079L348.067 337.259L349.671 340.503L351.157 343.819L352.507 347.207L353.739 350.659L354.826 354.165L355.787 357.735L356.602 361.35L357.282 365.029L357.807 368.743L358.197 372.512L358.423 376.318L358.505 380.168L358.423 384.019L358.197 387.824L357.807 391.593L357.282 395.317L356.602 398.986L355.787 402.611L354.826 406.171L353.739 409.687L352.507 413.13L351.157 416.518L349.671 419.834L348.067 423.087L346.346 426.258L344.498 429.365L342.541 432.383L340.466 435.327L338.291 438.181L336.008 440.954L333.616 443.626L331.125 446.208L328.542 448.7L325.87 451.083L323.097 453.375L320.243 455.55L317.299 457.624L314.282 459.581L311.174 461.43L308.003 463.151L304.75 464.755L301.434 466.241L298.046 467.591L294.603 468.823L291.087 469.91L287.527 470.87L283.903 471.686L280.233 472.365L276.509 472.891L272.74 473.271L268.935 473.507L265.084 473.589L261.234 473.507L257.429 473.271L253.659 472.891L249.945 472.365L246.266 471.686L242.651 470.87L239.082 469.91L235.575 468.823L232.123 467.591L228.735 466.241L225.419 464.755L222.175 463.151L218.995 461.43L215.896 459.581L212.87 457.624L209.935 455.55L207.072 453.375L204.308 451.083L201.626 448.7L199.044 446.208L196.553 443.626L194.17 440.954L191.887 438.181L189.703 435.327L187.628 432.383L185.671 429.365L183.832 426.258L182.102 423.087L180.498 419.834L179.012 416.518L177.662 413.13L176.439 409.687L175.343 406.171L174.382 402.611L173.567 398.986L172.896 395.317L172.362 391.593L171.981 387.824L171.746 384.019L171.673 380.168L171.746 376.318L171.981 372.512L172.362 368.743L172.896 365.029L173.567 361.35L174.382 357.735L175.343 354.165L176.439 350.659L177.662 347.207L179.012 343.819L180.498 340.503L182.102 337.259L183.832 334.079L185.671 330.98L187.628 327.954L189.703 325.01L191.887 322.156L194.17 319.392L196.553 316.71L199.044 314.128L201.626 311.637L204.308 309.254L207.072 306.971L209.935 304.787L212.87 302.712L215.896 300.755L218.995 298.916L222.175 297.186L225.419 295.582L228.735 294.096L232.123 292.746L235.575 291.523L239.082 290.427L242.651 289.466L246.266 288.651L249.945 287.98L253.659 287.446L257.429 287.065L261.234 286.83L265.084 286.757L268.935 286.83L272.74 287.065L272.74 287.065L276.509 287.446ZM212.055 352.444L210.805 354.546L209.636 356.702L208.549 358.904L207.543 361.16L206.619 363.452L205.794 365.79L205.051 368.173L204.399 370.592L203.846 373.047L203.384 375.539L203.031 378.057L202.768 380.612L202.614 383.194L202.56 385.804L202.614 388.422L202.768 391.004L203.031 393.559L203.384 396.078L203.846 398.57L204.399 401.025L205.051 403.444L205.794 405.827L206.619 408.165L207.543 410.466L208.549 412.713L209.636 414.914L210.805 417.071L212.055 419.173L213.387 421.22L214.791 423.223L216.268 425.152L217.817 427.037L219.439 428.849L221.124 430.607L222.873 432.292L224.694 433.914L226.569 435.463L228.508 436.94L230.502 438.344L232.549 439.676L234.66 440.926L236.807 442.095L239.018 443.182L241.265 444.188L243.557 445.103L245.904 445.937L248.278 446.68L250.697 447.323L253.152 447.885L255.644 448.338L258.171 448.7L260.726 448.963L263.309 449.117L265.918 449.171L268.527 449.117L271.11 448.963L273.665 448.7L276.183 448.338L278.675 447.885L281.13 447.323L283.549 446.68L285.932 445.937L288.27 445.103L290.562 444.188L292.818 443.182L295.02 442.095L297.176 440.926L299.278 439.676L301.325 438.344L303.319 436.94L305.258 435.463L307.133 433.914L308.945 432.292L310.703 430.607L312.388 428.849L314.01 427.037L315.559 425.152L317.036 423.223L318.44 421.22L319.772 419.173L321.022 417.071L322.191 414.914L323.278 412.713L324.284 410.466L325.208 408.165L326.033 405.827L326.776 403.444L327.428 401.025L327.981 398.57L328.434 396.078L328.796 393.559L329.059 391.004L329.213 388.422L329.267 385.804L329.213 383.194L329.059 380.612L328.796 378.057L328.434 375.539L327.981 373.047L327.428 370.592L326.776 368.173L326.033 365.79L325.208 363.452L324.284 361.16L323.278 358.904L322.191 356.702L321.022 354.546L319.772 352.444L318.44 350.396L317.371 348.883L214.447 348.883L213.387 350.396L213.387 350.396L212.055 352.444ZM253.17 408.853L254.23 409.388L255.209 410.049L256.088 410.828L256.867 411.707L257.528 412.686L258.063 413.746L258.452 414.887L258.697 416.083L258.788 417.333L258.697 418.575L258.452 419.771L258.063 420.903L257.528 421.963L256.867 422.942L256.088 423.83L255.209 424.609L254.23 425.27L253.17 425.805L252.038 426.194L250.842 426.439L249.601 426.53L248.35 426.439L247.154 426.194L246.022 425.805L244.953 425.27L243.974 424.609L243.095 423.83L242.316 422.942L241.655 421.963L241.12 420.903L240.731 419.771L240.486 418.575L240.404 417.333L240.486 416.083L240.731 414.887L241.12 413.746L241.655 412.686L242.316 411.707L243.095 410.828L243.974 410.049L244.953 409.388L246.022 408.853L247.154 408.463L248.35 408.219L249.601 408.128L250.842 408.219L252.038 408.463L252.038 408.463L253.17 408.853ZM288.324 408.554L289.384 409.089L290.363 409.75L291.25 410.529L292.021 411.408L292.682 412.387L293.217 413.456L293.606 414.588L293.851 415.784L293.941 417.034L293.851 418.276L293.606 419.472L293.217 420.604L292.682 421.673L292.021 422.652L291.25 423.531L290.363 424.31L289.384 424.971L288.324 425.506L287.191 425.904L286.005 426.149L284.754 426.231L283.504 426.149L282.308 425.904L281.175 425.506L280.115 424.971L279.137 424.31L278.249 423.531L277.47 422.652L276.808 421.673L276.283 420.604L275.884 419.472L275.64 418.276L275.558 417.034L275.64 415.784L275.884 414.588L276.283 413.456L276.808 412.387L277.47 411.408L278.249 410.529L279.137 409.75L280.115 409.089L281.175 408.554L282.308 408.165L283.504 407.92L284.754 407.838L286.005 407.92L287.191 408.165L287.191 408.165L288.324 408.554ZM269.488 380.395L270.557 380.929L271.526 381.591L272.414 382.37L273.184 383.249L273.846 384.227L274.38 385.296L274.779 386.429L275.024 387.625L275.105 388.875L275.024 390.126L274.779 391.322L274.38 392.454L273.846 393.514L273.184 394.493L272.414 395.38L271.526 396.16L270.557 396.812L269.488 397.347L268.355 397.745L267.168 397.99L265.918 398.071L264.668 397.99L263.472 397.745L262.339 397.347L261.279 396.812L260.301 396.16L259.413 395.38L258.634 394.493L257.981 393.514L257.447 392.454L257.048 391.322L256.803 390.126L256.722 388.875L256.803 387.625L257.048 386.429L257.447 385.296L257.981 384.227L258.634 383.249L259.413 382.37L260.301 381.591L261.279 380.929L262.339 380.395L263.472 380.005L264.668 379.761L265.918 379.679L267.168 379.761L268.355 380.005L268.355 380.005L269.488 380.395ZM234.995 380.331L236.064 380.866L237.043 381.527L237.922 382.297L238.701 383.185L239.362 384.164L239.897 385.224L240.296 386.356L240.54 387.552L240.622 388.803L240.54 390.053L240.296 391.249L239.897 392.382L239.362 393.451L238.701 394.429L237.922 395.308L237.043 396.087L236.064 396.749L234.995 397.283L233.863 397.673L232.667 397.917L231.426 397.999L230.175 397.917L228.979 397.673L227.847 397.283L226.778 396.749L225.799 396.087L224.92 395.308L224.141 394.429L223.48 393.451L222.945 392.382L222.556 391.249L222.311 390.053L222.229 388.803L222.311 387.552L222.556 386.356L222.945 385.224L223.48 384.164L224.141 383.185L224.92 382.297L225.799 381.527L226.778 380.866L227.847 380.331L228.979 379.933L230.175 379.688L231.426 379.607L232.667 379.688L233.863 379.933L233.863 379.933L234.995 380.331ZM301.525 378.637L302.585 379.172L303.563 379.833L304.451 380.612L305.23 381.491L305.883 382.47L306.417 383.539L306.816 384.671L307.061 385.867L307.142 387.118L307.061 388.368L306.816 389.564L306.417 390.696L305.883 391.756L305.23 392.735L304.451 393.623L303.563 394.402L302.585 395.063L301.525 395.589L300.392 395.988L299.196 396.232L297.946 396.314L296.696 396.232L295.5 395.988L294.367 395.589L293.307 395.063L292.329 394.402L291.441 393.623L290.671 392.735L290.009 391.756L289.475 390.696L289.076 389.564L288.831 388.368L288.75 387.118L288.831 385.867L289.076 384.671L289.475 383.539L290.009 382.47L290.671 381.491L291.441 380.612L292.329 379.833L293.307 379.172L294.367 378.637L295.5 378.248L296.696 378.003L297.946 377.921L299.196 378.003L300.392 378.248L300.392 378.248L301.525 378.637ZM288.27 362.274L289.13 362.981L289.837 363.833L290.372 364.82L290.707 365.907L290.825 367.067L290.707 368.236L290.372 369.323L289.837 370.302L289.13 371.162L288.27 371.869L287.291 372.395L286.204 372.739L285.035 372.857L283.875 372.739L282.788 372.395L281.801 371.869L280.949 371.162L280.242 370.302L279.708 369.323L279.363 368.236L279.246 367.067L279.363 365.907L279.708 364.82L280.242 363.833L280.949 362.981L281.801 362.274L282.788 361.74L283.875 361.395L285.035 361.278L286.204 361.395L287.291 361.74L287.291 361.74L288.27 362.274ZM249.256 362.274L250.108 362.981L250.815 363.833L251.349 364.82L251.693 365.907L251.811 367.067L251.693 368.236L251.349 369.323L250.815 370.302L250.108 371.162L249.256 371.869L248.269 372.395L247.181 372.739L246.022 372.857L244.853 372.739L243.766 372.395L242.787 371.869L241.926 371.162L241.22 370.302L240.685 369.323L240.35 368.236L240.232 367.067L240.35 365.907L240.685 364.82L241.22 363.833L241.926 362.981L242.787 362.274L243.766 361.74L244.853 361.395L246.022 361.278L247.181 361.395L248.269 361.74L248.269 361.74L249.256 362.274Z" fill="#000000" fill-rule="nonzero" opacity="1" stroke="none"/>
<path d="M259.64 186.69L259.64 187.42L259.64 187.42L259.64 187.94L259.64 187.22L259.64 187.22L259.64 186.69L259.64 186.69Z" fill="#171717" fill-rule="nonzero" opacity="1" stroke="none"/>
<path d="M169.235 219.749C186.219 219.749 199.988 233.518 199.988 250.502C199.988 267.486 186.219 281.255 169.235 281.255C152.251 281.255 138.482 267.486 138.482 250.502C138.482 233.518 152.251 219.749 169.235 219.749" fill="#000000" fill-rule="nonzero" opacity="1" stroke="none"/>
<path d="M169.235 276.079C155.109 276.079 143.658 264.628 143.658 250.502C143.658 236.376 155.109 224.925 169.235 224.925C183.361 224.925 194.812 236.376 194.812 250.502C194.812 264.628 183.361 276.079 169.235 276.079M169.235 228.686C157.186 228.686 147.419 238.453 147.419 250.502C147.419 262.55 157.186 272.318 169.235 272.318C181.283 272.318 191.051 262.55 191.051 250.502C191.022 238.465 181.271 228.715 169.235 228.686" fill="#ffffff" fill-rule="nonzero" opacity="1" stroke="none"/>
</g>
</svg>
