<?xml version="1.0" encoding="UTF-8" standalone="no"?>
<!DOCTYPE svg PUBLIC "-//W3C//DTD SVG 1.1//EN" "http://www.w3.org/Graphics/SVG/1.1/DTD/svg11.dtd">
<!-- Created with Vectornator (http://vectornator.io/) -->
<svg height="100%" stroke-miterlimit="10" style="fill-rule:nonzero;clip-rule:evenodd;stroke-linecap:round;stroke-linejoin:round;" version="1.1" viewBox="0 0 850 1000" width="100%" xml:space="preserve" xmlns="http://www.w3.org/2000/svg" xmlns:vectornator="http://vectornator.io" xmlns:xlink="http://www.w3.org/1999/xlink">
<defs>
<clipPath id="TextBounds">
<rect height="169" width="455.507" x="197.247" y="806.063"/>
</clipPath>
</defs>
<g id="Layer-1" vectornator:layerName="Layer 1">
<g opacity="1">
<path d="M463.112 567.656C463.112 529.848 494.501 499.199 533.22 499.199C571.94 499.199 603.328 529.848 603.328 567.656C603.328 605.464 571.94 636.113 533.22 636.113C514.434 636.113 497.373 628.898 484.786 617.151C471.431 604.686 463.112 587.12 463.112 567.656Z" fill="#000000" fill-rule="evenodd" opacity="1" stroke="#000000" stroke-linecap="butt" stroke-linejoin="round" stroke-width="32"/>
<path d="M247.107 567.656C247.107 529.848 278.496 499.199 317.215 499.199C355.935 499.199 387.323 529.848 387.323 567.656C387.323 605.464 355.935 636.113 317.215 636.113C278.496 636.113 247.107 605.464 247.107 567.656Z" fill="#000000" fill-rule="evenodd" opacity="1" stroke="#000000" stroke-linecap="butt" stroke-linejoin="round" stroke-width="32"/>
<path d="M138.649 380.854C138.649 343.046 170.037 312.397 208.756 312.397C247.476 312.397 278.864 343.046 278.864 380.854C278.864 418.662 247.476 449.311 208.756 449.311C170.037 449.311 138.649 418.662 138.649 380.854Z" fill="#000000" fill-rule="evenodd" opacity="1" stroke="#000000" stroke-linecap="butt" stroke-linejoin="round" stroke-width="32"/>
<path d="M356.543 380.854C356.543 343.046 387.931 312.397 426.651 312.397C465.37 312.397 496.759 343.046 496.759 380.854C496.759 418.662 465.37 449.311 426.651 449.311C387.931 449.311 356.543 418.662 356.543 380.854Z" fill="none" opacity="1" stroke="#000000" stroke-linecap="butt" stroke-linejoin="round" stroke-width="32"/>
<path d="M571.136 380.854C571.136 343.046 602.524 312.397 641.244 312.397C679.963 312.397 711.351 343.046 711.351 380.854C711.351 418.662 679.963 449.311 641.244 449.311C602.524 449.311 571.136 418.662 571.136 380.854Z" fill="none" opacity="1" stroke="#000000" stroke-linecap="butt" stroke-linejoin="round" stroke-width="32"/>
<path d="M481.114 214.058C481.114 184.879 504.029 161.225 532.296 161.225C560.564 161.225 583.479 184.879 583.479 214.058C583.479 243.237 560.564 266.891 532.296 266.891C504.029 266.891 481.114 243.237 481.114 214.058Z" fill="none" opacity="1" stroke="#000000" stroke-linecap="butt" stroke-linejoin="round" stroke-width="24"/>
<path d="M266.521 214.058C266.521 184.879 289.436 161.225 317.704 161.225C345.971 161.225 368.886 184.879 368.886 214.058C368.886 243.237 345.971 266.891 317.704 266.891C289.436 266.891 266.521 243.237 266.521 214.058Z" fill="none" opacity="1" stroke="#000000" stroke-linecap="butt" stroke-linejoin="round" stroke-width="24"/>
<path d="M203.609 80L652.603 80C652.603 80 699.684 111.835 719.518 133.709C739.353 155.584 758.247 184.994 771.454 208.755C784.661 232.516 795.361 253.798 804.469 281.387C813.577 308.976 821.924 337.722 824.278 373.827C826.631 409.932 823.21 459.336 814.373 495.98C805.537 532.624 789.123 565.972 774.756 591.721C760.39 617.471 749.866 630.519 731.838 651.147C713.809 671.775 690.118 695.04 665.809 713.874C641.5 732.709 615.92 749.946 586.575 763.396C557.23 776.845 490.833 793.108 490.833 793.108C490.833 793.108 400.927 805.167 329.063 779.903C300.499 769.861 281.781 766.437 249.829 750.19C209.802 729.837 171.251 704.033 140.882 670.956C99.1436 625.495 65.6928 570.679 45.1406 512.487C28.8663 466.407 23.5366 416.06 25.332 367.224C26.6959 330.126 35.3728 293.024 48.442 258.277C59.5427 228.764 78.3791 200.375 94.662 175.741C110.591 151.644 138.638 125.226 157.389 109.713C176.14 94.1994 203.609 80 203.609 80Z" fill="none" opacity="1" stroke="#000000" stroke-linecap="butt" stroke-linejoin="round" stroke-width="40"/>
</g>
<g fill="#000000" opacity="1" stroke="none">
<path clip-path="url(#TextBounds)" d="M209.411 841.643L223.014 841.643L223.014 930.1L273.873 930.1L273.873 942.063L209.411 942.063L209.411 841.643Z"/>
<path clip-path="url(#TextBounds)" d="M290.006 872.746L290.006 863.313C298.893 862.447 305.091 861 308.6 858.972C312.109 856.944 314.73 852.148 316.461 844.582L326.168 844.582L326.168 942.063L313.043 942.063L313.043 872.746L290.006 872.746Z"/>
<path clip-path="url(#TextBounds)" d="M370.944 898.313L477.926 898.313L477.926 908.362L370.944 908.362L370.944 898.313Z"/>
<path clip-path="url(#TextBounds)" d="M505.133 841.643L518.737 841.643L518.737 930.1L569.596 930.1L569.596 942.063L505.133 942.063L505.133 841.643Z"/>
<path clip-path="url(#TextBounds)" d="M608.698 944.729C597.122 944.729 588.725 941.55 583.507 935.193C578.289 928.835 575.68 921.099 575.68 911.985L588.532 911.985C589.079 918.319 590.263 922.922 592.086 925.793C595.276 930.943 601.041 933.518 609.381 933.518C615.853 933.518 621.048 931.786 624.967 928.323C628.886 924.859 630.846 920.393 630.846 914.924C630.846 908.179 628.784 903.463 624.66 900.774C620.535 898.085 614.804 896.741 607.467 896.741C606.647 896.741 605.815 896.752 604.972 896.775C604.129 896.798 603.275 896.832 602.409 896.877L602.409 886.008C603.685 886.145 604.756 886.236 605.622 886.282C606.487 886.327 607.422 886.35 608.424 886.35C613.027 886.35 616.81 885.621 619.772 884.162C624.967 881.61 627.565 877.053 627.565 870.491C627.565 865.614 625.833 861.855 622.37 859.211C618.906 856.568 614.873 855.246 610.27 855.246C602.067 855.246 596.393 857.981 593.248 863.45C591.517 866.457 590.537 870.741 590.309 876.301L578.141 876.301C578.141 869.009 579.599 862.812 582.516 857.707C587.529 848.593 596.347 844.036 608.971 844.036C618.952 844.036 626.676 846.257 632.145 850.701C637.614 855.144 640.348 861.581 640.348 870.012C640.348 876.028 638.73 880.904 635.495 884.641C633.489 886.965 630.892 888.788 627.702 890.11C632.851 891.523 636.873 894.245 639.767 898.279C642.661 902.312 644.108 907.245 644.108 913.079C644.108 922.421 641.032 930.032 634.879 935.911C628.727 941.789 620 944.729 608.698 944.729Z"/>
</g>
</g>
</svg>
