<?xml version="1.0" encoding="UTF-8" standalone="no"?>
<!DOCTYPE svg PUBLIC "-//W3C//DTD SVG 1.1//EN" "http://www.w3.org/Graphics/SVG/1.1/DTD/svg11.dtd">
<!-- Created with Vectornator (http://vectornator.io/) -->
<svg height="100%" stroke-miterlimit="10" style="fill-rule:nonzero;clip-rule:evenodd;stroke-linecap:round;stroke-linejoin:round;" version="1.1" viewBox="0 0 850 850" width="100%" xml:space="preserve" xmlns="http://www.w3.org/2000/svg" xmlns:vectornator="http://vectornator.io" xmlns:xlink="http://www.w3.org/1999/xlink">
<defs/>
<g id="Layer-1" vectornator:layerName="Layer 1">
<g opacity="1">
<path d="M463.112 587.656C463.112 549.848 494.501 519.199 533.22 519.199C571.94 519.199 603.328 549.848 603.328 587.656C603.328 625.464 571.94 656.113 533.22 656.113C514.434 656.113 497.373 648.898 484.786 637.151C471.431 624.686 463.112 607.12 463.112 587.656Z" fill="none" opacity="1" stroke="#000000" stroke-linecap="butt" stroke-linejoin="round" stroke-width="32"/>
<path d="M247.107 587.656C247.107 549.848 278.496 519.199 317.215 519.199C355.935 519.199 387.323 549.848 387.323 587.656C387.323 625.464 355.935 656.113 317.215 656.113C278.496 656.113 247.107 625.464 247.107 587.656Z" fill="none" opacity="1" stroke="#000000" stroke-linecap="butt" stroke-linejoin="round" stroke-width="32"/>
<path d="M138.649 400.854C138.649 363.046 170.037 332.397 208.756 332.397C247.476 332.397 278.864 363.046 278.864 400.854C278.864 438.662 247.476 469.311 208.756 469.311C170.037 469.311 138.649 438.662 138.649 400.854Z" fill="none" opacity="1" stroke="#000000" stroke-linecap="butt" stroke-linejoin="round" stroke-width="32"/>
<path d="M356.543 400.854C356.543 363.046 387.931 332.397 426.651 332.397C465.37 332.397 496.759 363.046 496.759 400.854C496.759 438.662 465.37 469.311 426.651 469.311C387.931 469.311 356.543 438.662 356.543 400.854Z" fill="none" opacity="1" stroke="#000000" stroke-linecap="butt" stroke-linejoin="round" stroke-width="32"/>
<path d="M571.136 400.854C571.136 363.046 602.524 332.397 641.244 332.397C679.963 332.397 711.351 363.046 711.351 400.854C711.351 438.662 679.963 469.311 641.244 469.311C602.524 469.311 571.136 438.662 571.136 400.854Z" fill="none" opacity="1" stroke="#000000" stroke-linecap="butt" stroke-linejoin="round" stroke-width="32"/>
<path d="M481.114 234.058C481.114 204.879 504.029 181.225 532.296 181.225C560.564 181.225 583.479 204.879 583.479 234.058C583.479 263.237 560.564 286.891 532.296 286.891C504.029 286.891 481.114 263.237 481.114 234.058Z" fill="none" opacity="1" stroke="#000000" stroke-linecap="butt" stroke-linejoin="round" stroke-width="24"/>
<path d="M266.521 234.058C266.521 204.879 289.436 181.225 317.704 181.225C345.971 181.225 368.886 204.879 368.886 234.058C368.886 263.237 345.971 286.891 317.704 286.891C289.436 286.891 266.521 263.237 266.521 234.058Z" fill="none" opacity="1" stroke="#000000" stroke-linecap="butt" stroke-linejoin="round" stroke-width="24"/>
<path d="M203.609 100L652.603 100C652.603 100 699.684 131.835 719.518 153.709C739.353 175.584 758.247 204.994 771.454 228.755C784.661 252.516 795.361 273.798 804.469 301.387C813.577 328.976 821.924 357.722 824.278 393.827C826.631 429.932 823.21 479.336 814.373 515.98C805.537 552.624 789.123 585.972 774.756 611.721C760.39 637.471 749.866 650.519 731.838 671.147C713.809 691.775 690.118 715.04 665.809 733.874C641.5 752.709 615.92 769.946 586.575 783.396C557.23 796.845 490.833 813.108 490.833 813.108C490.833 813.108 400.927 825.167 329.063 799.903C300.499 789.861 281.781 786.437 249.829 770.19C209.802 749.837 171.251 724.033 140.882 690.956C99.1436 645.495 65.6928 590.679 45.1406 532.487C28.8663 486.407 23.5366 436.06 25.332 387.224C26.6959 350.126 35.3728 313.024 48.442 278.277C59.5427 248.764 78.3791 220.375 94.662 195.741C110.591 171.644 138.638 145.226 157.389 129.713C176.14 114.199 203.609 100 203.609 100Z" fill="none" opacity="1" stroke="#000000" stroke-linecap="butt" stroke-linejoin="round" stroke-width="40"/>
</g>
</g>
</svg>
