<?xml version="1.0" encoding="UTF-8" standalone="no"?>
<!DOCTYPE svg PUBLIC "-//W3C//DTD SVG 1.1//EN" "http://www.w3.org/Graphics/SVG/1.1/DTD/svg11.dtd">
<!-- Created with Vectornator (http://vectornator.io/) -->
<svg height="100%" stroke-miterlimit="10" style="fill-rule:nonzero;clip-rule:evenodd;stroke-linecap:round;stroke-linejoin:round;" version="1.1" viewBox="0 0 116 116" width="100%" xml:space="preserve" xmlns="http://www.w3.org/2000/svg" xmlns:vectornator="http://vectornator.io" xmlns:xlink="http://www.w3.org/1999/xlink">
<defs>
<clipPath id="TextBounds">
<rect height="48.6556" width="32.2757" x="41.3164" y="17.3724"/>
</clipPath>
</defs>
<g id="Untitled" vectornator:layerName="Untitled">
<g opacity="1">
<g opacity="1">
<path d="M58.0264 114.515C39.7614 114.494 24.9589 98.9768 24.9365 79.8267L24.9365 19.376C24.9459 10.8682 31.5217 3.97373 39.6363 3.96378L76.4165 3.96378C84.5311 3.97373 91.1069 10.8682 91.1164 19.376L91.1164 79.8267C91.0931 98.9765 76.2911 114.494 58.0264 114.515M39.6363 6.37353C32.7898 6.38077 27.241 12.1977 27.2333 19.376L27.2333 79.8267C27.2333 97.6561 41.0188 112.11 58.0241 112.11C75.0294 112.11 88.8149 97.6561 88.8149 79.8267L88.8149 19.376C88.808 12.1986 83.2606 6.38167 76.4149 6.37353L39.6363 6.37353Z" fill="#97c2e0" fill-rule="nonzero" opacity="1" stroke="#000000" stroke-linecap="butt" stroke-linejoin="round" stroke-width="2"/>
<path d="M77.6463 64.0382C74.6933 64.0382 72.2996 61.6442 72.2999 58.6912C72.3002 55.7383 74.6944 53.3447 77.6473 53.3453C80.6003 53.3459 82.9936 55.7404 82.9927 58.6934C82.9892 61.6444 80.5973 64.0355 77.6463 64.0382M77.6463 54.1281C75.1261 54.1281 73.0829 56.171 73.0827 58.6912C73.0824 61.2114 75.125 63.2548 77.6452 63.2554C80.1654 63.256 82.209 61.2136 82.2099 58.6934C82.2072 56.1738 80.1659 54.1317 77.6463 54.1281" fill="#000000" fill-rule="nonzero" opacity="1" stroke="#000000" stroke-linecap="butt" stroke-linejoin="round" stroke-width="1"/>
<path clip-path="url(#TextBounds)" d="M48.255 39.3925L57.7069 39.3925L52.764 52.4392C52.0513 54.3296 53.9881 55.3367 55.2432 53.8182L70.5211 35.1625C70.831 34.7906 70.986 34.4187 70.986 34.0158C70.986 33.2721 70.4282 32.7453 69.6689 32.7453L60.2171 32.7453L65.1444 19.6831C65.8572 17.7927 63.9203 16.7856 62.6807 18.3196L47.3873 36.9599C47.0774 37.3472 46.938 37.7036 46.938 38.122C46.938 38.8502 47.4958 39.3925 48.255 39.3925Z" fill="#000000" opacity="1" stroke="none"/>
</g>
<g opacity="1">
<path d="M56.0261 91.317C56.0261 89.5155 54.5306 88.0552 52.6857 88.0552C50.8408 88.0552 49.3453 89.5155 49.3453 91.317C49.3453 93.1184 50.8408 94.5787 52.6857 94.5787C54.5306 94.5787 56.0261 93.1184 56.0261 91.317Z" fill="none" opacity="1" stroke="#000000" stroke-linecap="butt" stroke-linejoin="miter" stroke-width="2"/>
<path d="M66.7227 91.317C66.7227 89.5155 65.2272 88.0552 63.3823 88.0552C61.5374 88.0552 60.0419 89.5155 60.0419 91.317C60.0419 93.1184 61.5374 94.5787 63.3823 94.5787C65.2272 94.5787 66.7227 93.1184 66.7227 91.317Z" fill="none" opacity="1" stroke="#000000" stroke-linecap="butt" stroke-linejoin="miter" stroke-width="2"/>
<path d="M71.7564 82.508C71.7564 80.7065 70.2609 79.2462 68.416 79.2462C66.5711 79.2462 65.0756 80.7065 65.0756 82.508C65.0756 84.3094 66.5711 85.7698 68.416 85.7698C70.2609 85.7698 71.7564 84.3094 71.7564 82.508Z" fill="none" opacity="1" stroke="#000000" stroke-linecap="butt" stroke-linejoin="miter" stroke-width="2"/>
<path d="M61.3744 82.508C61.3744 80.7065 59.8789 79.2462 58.034 79.2462C56.1891 79.2462 54.6936 80.7065 54.6936 82.508C54.6936 84.3094 56.1891 85.7698 58.034 85.7698C59.8789 85.7698 61.3744 84.3094 61.3744 82.508Z" fill="none" opacity="1" stroke="#000000" stroke-linecap="butt" stroke-linejoin="miter" stroke-width="2"/>
<path d="M51.1497 82.508C51.1497 80.7065 49.6542 79.2462 47.8093 79.2462C45.9644 79.2462 44.4689 80.7065 44.4689 82.508C44.4689 84.3094 45.9644 85.7698 47.8093 85.7698C49.6542 85.7698 51.1497 84.3094 51.1497 82.508Z" fill="none" opacity="1" stroke="#000000" stroke-linecap="butt" stroke-linejoin="miter" stroke-width="2"/>
<path d="M55.4223 75.3507C55.4223 73.9604 54.3305 72.8334 52.9837 72.8334C51.6368 72.8334 50.545 73.9604 50.545 75.3507C50.545 76.741 51.6368 77.868 52.9837 77.868C54.3305 77.868 55.4223 76.741 55.4223 75.3507Z" fill="none" opacity="1" stroke="#000000" stroke-linecap="butt" stroke-linejoin="miter" stroke-width="1"/>
<path d="M65.4277 75.3507C65.4277 73.9604 64.3359 72.8334 62.9891 72.8334C61.6422 72.8334 60.5504 73.9604 60.5504 75.3507C60.5504 76.741 61.6422 77.868 62.9891 77.868C64.3359 77.868 65.4277 76.741 65.4277 75.3507Z" fill="none" opacity="1" stroke="#000000" stroke-linecap="butt" stroke-linejoin="miter" stroke-width="1"/>
<path d="M68.5733 67.9575L47.1801 67.9575C47.1801 67.9575 44.9369 69.4743 43.9918 70.5165C43.0468 71.5588 42.1465 72.9601 41.5172 74.0922C40.8879 75.2244 40.3781 76.2384 39.9442 77.5529C39.5102 78.8675 39.1125 80.2371 39.0004 81.9574C38.8882 83.6777 39.0512 86.0316 39.4723 87.7776C39.8933 89.5236 40.6754 91.1125 41.3599 92.3394C42.0444 93.5663 42.5458 94.188 43.4048 95.1709C44.2639 96.1537 45.3926 97.2622 46.5509 98.1596C47.7092 99.057 48.928 99.8783 50.3262 100.519C51.7244 101.16 54.888 101.935 54.888 101.935C54.888 101.935 59.1717 102.509 62.5958 101.306C63.9568 100.827 64.8487 100.664 66.3711 99.89C68.2782 98.9202 70.1151 97.6907 71.5621 96.1147C73.5508 93.9486 75.1446 91.3368 76.1239 88.5641C76.8993 86.3686 77.1532 83.9697 77.0677 81.6428C77.0027 79.8752 76.5893 78.1074 75.9666 76.4518C75.4376 75.0456 74.5402 73.693 73.7643 72.5192C73.0054 71.3711 71.669 70.1124 70.7756 69.3732C69.8821 68.634 68.5733 67.9575 68.5733 67.9575Z" fill="none" opacity="1" stroke="#000000" stroke-linecap="butt" stroke-linejoin="round" stroke-width="2"/>
</g>
</g>
</g>
</svg>
